<?xml version="1.0" standalone="no"?><!DOCTYPE svg PUBLIC "-//W3C//DTD SVG 1.1//EN" "http://www.w3.org/Graphics/SVG/1.1/DTD/svg11.dtd"><svg class="icon" width="200px" height="200.00px" viewBox="0 0 1024 1024" version="1.1" xmlns="http://www.w3.org/2000/svg"><path fill="#2c2c2c" d="M569.173333 893.013333H181.333333V237.013333c0-37.333333 27.946667-69.12 64.853334-74.026666l238.506666-31.36a74.666667 74.666667 0 0 1 84.48 74.026666v687.36z m-323.84-64h259.84V205.653333c0-4.266667-2.346667-6.826667-3.626666-8.106666a9.984 9.984 0 0 0-8.533334-2.56l-238.506666 31.36c-5.333333 0.64-9.386667 5.333333-9.386667 10.666666v592z"  /><path fill="#2c2c2c" d="M842.666667 861.013333h-64V478.933333c0-5.333333-3.84-9.813333-8.96-10.453333l-237.44-37.12 9.813333-63.146667L779.52 405.333333c36.48 5.76 63.146667 36.693333 63.146667 73.813334v381.866666z"  /><path fill="#2c2c2c" d="M864 893.013333h-704c-17.706667 0-32-14.293333-32-32s14.293333-32 32-32h704c17.706667 0 32 14.293333 32 32s-14.293333 32-32 32zM420.906667 379.946667h-85.333334c-17.706667 0-32-14.293333-32-32s14.293333-32 32-32h85.333334c17.706667 0 32 14.293333 32 32s-14.506667 32-32 32zM420.906667 548.906667h-85.333334c-17.706667 0-32-14.293333-32-32s14.293333-32 32-32h85.333334c17.706667 0 32 14.293333 32 32s-14.506667 32-32 32zM725.333333 669.44h-85.333333c-17.706667 0-32-14.293333-32-32s14.293333-32 32-32h85.333333c17.706667 0 32 14.293333 32 32s-14.293333 32-32 32z"  /><path fill="#2c2c2c" d="M420.906667 717.866667h-85.333334c-17.706667 0-32-14.293333-32-32s14.293333-32 32-32h85.333334c17.706667 0 32 14.293333 32 32s-14.506667 32-32 32z"  /></svg>