<?xml version="1.0" standalone="no"?><!DOCTYPE svg PUBLIC "-//W3C//DTD SVG 1.1//EN" "http://www.w3.org/Graphics/SVG/1.1/DTD/svg11.dtd"><svg class="icon" width="200px" height="200.00px" viewBox="0 0 1024 1024" version="1.1" xmlns="http://www.w3.org/2000/svg"><path fill="#2c2c2c" d="M413.013333 780.8c-8.106667 0-16.426667-3.2-22.613333-9.386667a31.786667 31.786667 0 0 1 0-45.226666l295.68-295.68c17.92-17.92 16.213333-48.426667-3.413333-68.266667-9.813333-9.813333-22.4-15.36-35.84-15.786667a42.453333 42.453333 0 0 0-32.426667 12.373334L318.933333 654.72c-12.586667 12.586667-32.853333 12.586667-45.226666 0s-12.586667-32.853333 0-45.226667l295.68-295.68c20.906667-20.906667 49.28-31.573333 79.573333-31.146666 29.653333 0.853333 57.813333 13.226667 79.146667 34.56 44.8 44.586667 46.293333 115.84 3.413333 158.72L435.626667 771.413333c-6.186667 6.4-14.293333 9.386667-22.613334 9.386667z"  /><path fill="#2c2c2c" d="M308.693333 827.093333c-47.36 0-95.36-18.56-132.48-55.466666-34.346667-34.346667-53.973333-79.36-55.466666-126.933334-1.493333-48.213333 16-93.226667 49.066666-126.293333L458.666667 229.546667c12.586667-12.586667 32.853333-12.586667 45.226666 0s12.586667 32.853333 0 45.226666L215.253333 563.626667c-20.48 20.48-31.36 48.64-30.293333 79.146666a122.453333 122.453333 0 0 0 36.693333 83.626667c46.506667 46.506667 119.68 49.493333 162.773334 6.4L672.853333 443.733333c12.586667-12.586667 32.853333-12.586667 45.226667 0s12.586667 32.853333 0 45.226667L429.44 777.813333c-32.853333 32.853333-76.586667 49.28-120.746667 49.28z"  /><path fill="#2c2c2c" d="M512.426667 880.213333c-8.106667 0-16.426667-3.2-22.613334-9.386666a31.786667 31.786667 0 0 1 0-45.226667l300.373334-300.373333c68.906667-68.906667 64.853333-185.173333-9.173334-259.2-74.026667-74.026667-190.293333-78.08-259.2-9.173334L221.44 557.226667c-12.586667 12.586667-32.853333 12.586667-45.226667 0s-12.586667-32.853333 0-45.226667L476.586667 211.626667c93.866667-93.866667 250.666667-89.813333 349.653333 9.173333 98.986667 98.986667 103.04 255.786667 9.173333 349.653333L535.04 870.826667c-6.186667 6.186667-14.506667 9.386667-22.613333 9.386666z"  /></svg>