<?xml version="1.0" standalone="no"?><!DOCTYPE svg PUBLIC "-//W3C//DTD SVG 1.1//EN" "http://www.w3.org/Graphics/SVG/1.1/DTD/svg11.dtd"><svg class="icon" width="200px" height="200.00px" viewBox="0 0 1024 1024" version="1.1" xmlns="http://www.w3.org/2000/svg"><path fill="#2c2c2c" d="M876 416c-0.6 0-1.2 0-1.8-0.1C753.9 403.4 632 397.1 512 397.1s-241.5 6.3-361.2 18.8c-7.5 0.8-14.6-3.4-17.5-10.4s-0.9-14.9 4.9-19.7l247.9-203.6c5.4-4.5 13-5.1 19.1-1.7l74.3 41.9c19.6 11 43.3 10.1 61.9-2.4l57.7-38.8c6-4.1 14-3.8 19.8 0.6l267.4 203.7c6.1 4.6 8.3 12.7 5.5 19.8-2.6 6.5-8.9 10.7-15.8 10.7zM398.6 215.8L202.9 376.7C305.7 367.6 409.4 363 512 363c101.5 0 204.2 4.5 306.3 13.4L608 216.2l-47.6 32c-29.4 19.7-66.8 21.2-97.6 3.8l-64.2-36.2zM164.1 675.8V830h25.3v-68.3h78.2V830h25.3V675.8h-25.3v64.4h-78.2v-64.4h-25.3z m160.1 0V830h114.9v-21.6h-89.6v-46.7h80.8v-21.6h-80.8v-42.8h86v-21.6H324.2z m139.8 0V830h108.4v-21.6H489V675.8h-25z m128.9 0V830h108.4v-21.6H618V675.8h-25.1z m197.5-3c23.5 0 42.1 7.6 55.7 22.9 13 14.5 19.4 33.7 19.4 57.5s-6.5 42.8-19.4 57.2c-13.6 15.1-32.2 22.7-55.7 22.7-23.8 0-42.3-7.8-55.7-22.9-13-14.7-19.2-33.7-19.2-57 0-23.5 6.3-42.6 19.2-57.2 13.3-15.7 31.9-23.2 55.7-23.2z m0 22.2c-16 0-28.3 5.4-37.2 16.2-8.4 10.4-12.5 24.2-12.5 41.9 0 17.5 4.1 31.3 12.5 41.7 8.6 10.6 21.2 16 37.2 16s28.3-5.2 36.9-15.3c8.4-10.2 12.7-24.2 12.7-42.3 0-18.1-4.3-32.4-12.7-42.8-8.6-10.4-20.9-15.4-36.9-15.4z"  /><path fill="#2c2c2c" d="M893 902H136c-20.4 0-37-16.6-37-37V645c0-20.4 16.6-37 37-37h76.2c9.9 0 19.1-3.8 26.1-10.8l129.2-128.9c14.4-14.4 37.9-14.4 52.3 0.1 6.4 6.4 10.2 14.9 10.7 23.9l4.9 81c1.2 19.5 17.4 34.8 36.9 34.8H893c20.4 0 37 16.6 37 37v220c0 20.3-16.6 36.9-37 36.9zM136 642c-1.7 0-3 1.3-3 3v220c0 1.7 1.3 3 3 3h757c1.7 0 3-1.3 3-3V645c0-1.7-1.3-3-3-3H472.4c-37.5 0-68.6-29.3-70.9-66.8l-4.9-81c0-0.7-0.4-1.4-0.9-1.9-1.2-1.2-3.1-1.2-4.2 0l-129.2 129c-13.4 13.4-31.2 20.7-50.1 20.7H136z"  /><path fill="#2c2c2c" d="M459 514c-6.4 0-12.5-3.6-15.4-9.8-4-8.5-0.4-18.6 8.1-22.6l27.7-13.1c16.9-8 36.4-6.8 52.3 3.1l3.8 2.4c4.6 2.9 10.2 3.7 15.4 2.2l314.4-90.7c9-2.6 18.4 2.6 21 11.6s-2.6 18.4-11.6 21l-314.4 90.7c-14.5 4.2-30.1 2-42.9-6l-3.8-2.4c-6-3.7-13.3-4.2-19.7-1.2l-27.7 13.1c-2.3 1.2-4.7 1.7-7.2 1.7z m-140.5-43.7c-1.7 0-3.4-0.2-5.1-0.8L148 418.1c-9-2.8-14-12.3-11.2-21.3 2.8-9 12.3-14 21.3-11.2l165.5 51.5c9 2.8 14 12.3 11.2 21.3-2.3 7.3-9 11.9-16.3 11.9z"  /></svg>