<?xml version="1.0" standalone="no"?><!DOCTYPE svg PUBLIC "-//W3C//DTD SVG 1.1//EN" "http://www.w3.org/Graphics/SVG/1.1/DTD/svg11.dtd"><svg class="icon" width="200px" height="200.00px" viewBox="0 0 1024 1024" version="1.1" xmlns="http://www.w3.org/2000/svg"><path fill="#2c2c2c" d="M821.333333 853.333333h-618.666666A117.546667 117.546667 0 0 1 85.333333 736v-448C85.333333 223.36 138.026667 170.666667 202.666667 170.666667h618.666666c64.64 0 117.333333 52.693333 117.333334 117.333333v448c0 64.64-52.693333 117.333333-117.333334 117.333333z m-618.666666-618.666666A53.333333 53.333333 0 0 0 149.333333 288v448A53.333333 53.333333 0 0 0 202.666667 789.333333h618.666666a53.333333 53.333333 0 0 0 53.333334-53.333333v-448a53.333333 53.333333 0 0 0-53.333334-53.333333h-618.666666z"  /><path fill="#2c2c2c" d="M341.973333 491.52c-58.88 0-106.666667-47.786667-106.666666-106.666667s47.786667-106.666667 106.666666-106.666666 106.666667 47.786667 106.666667 106.666666-47.786667 106.666667-106.666667 106.666667z m0-149.333333c-23.466667 0-42.666667 19.2-42.666666 42.666666s19.2 42.666667 42.666666 42.666667 42.666667-19.2 42.666667-42.666667-18.986667-42.666667-42.666667-42.666666zM352.853333 724.266667c-8.32 0-16.213333-3.2-22.4-8.96a137.813333 137.813333 0 0 0-96.64-39.466667c-35.2 0-68.693333 13.226667-94.506666 37.546667l-43.733334-46.72a201.493333 201.493333 0 0 1 138.453334-54.826667c39.253333 0 77.013333 11.306667 109.44 32 64-100.693333 176.853333-163.84 297.6-163.84 117.546667 0 226.773333 58.24 292.48 155.946667l-53.12 35.626666a287.36 287.36 0 0 0-239.146667-127.573333c-111.146667 0-210.56 62.08-259.2 162.346667-4.48 9.173333-13.226667 15.786667-23.253333 17.493333-2.346667 0.213333-4.053333 0.426667-5.973334 0.426667z"  /></svg>