<?xml version="1.0" standalone="no"?><!DOCTYPE svg PUBLIC "-//W3C//DTD SVG 1.1//EN" "http://www.w3.org/Graphics/SVG/1.1/DTD/svg11.dtd"><svg class="icon" width="200px" height="200.00px" viewBox="0 0 1024 1024" version="1.1" xmlns="http://www.w3.org/2000/svg"><path fill="#2c2c2c" d="M821.333333 405.333333h-213.333333c-41.173333 0-74.666667-33.493333-74.666667-74.666666v-213.333334c0-13.013333 7.893333-24.533333 19.84-29.653333s25.813333-2.133333 34.773334 7.04l256 256A31.936 31.936 0 0 1 821.333333 405.333333zM597.333333 194.56v136.106667c0 5.973333 4.693333 10.666667 10.666667 10.666666h136.106667L597.333333 194.56zM451.626667 297.6h-149.333334c-17.706667 0-32-14.293333-32-32s14.293333-32 32-32h149.333334c17.706667 0 32 14.293333 32 32s-14.293333 32-32 32zM451.626667 454.826667h-149.333334c-17.706667 0-32-14.293333-32-32s14.293333-32 32-32h149.333334c17.706667 0 32 14.293333 32 32s-14.293333 32-32 32zM622.293333 611.84h-320c-17.706667 0-32-14.293333-32-32s14.293333-32 32-32h320c17.706667 0 32 14.293333 32 32s-14.293333 32-32 32zM622.293333 769.066667h-320c-17.706667 0-32-14.293333-32-32s14.293333-32 32-32h320c17.706667 0 32 14.293333 32 32s-14.293333 32-32 32z"  /><path fill="#2c2c2c" d="M736 938.666667h-448A117.546667 117.546667 0 0 1 170.666667 821.333333v-618.666666C170.666667 138.026667 223.36 85.333333 288 85.333333h277.333333c17.706667 0 32 14.293333 32 32S583.04 149.333333 565.333333 149.333333h-277.333333A53.333333 53.333333 0 0 0 234.666667 202.666667v618.666666a53.333333 53.333333 0 0 0 53.333333 53.333334h448a53.333333 53.333333 0 0 0 53.333333-53.333334v-448c0-17.706667 14.293333-32 32-32s32 14.293333 32 32v448c0 64.64-52.693333 117.333333-117.333333 117.333334z"  /></svg>