<?xml version="1.0" standalone="no"?><!DOCTYPE svg PUBLIC "-//W3C//DTD SVG 1.1//EN" "http://www.w3.org/Graphics/SVG/1.1/DTD/svg11.dtd"><svg class="icon" width="200px" height="200.00px" viewBox="0 0 1024 1024" version="1.1" xmlns="http://www.w3.org/2000/svg"><path fill="#2c2c2c" d="M512 938.666667C276.693333 938.666667 85.333333 747.306667 85.333333 512S276.693333 85.333333 512 85.333333s426.666667 191.36 426.666667 426.666667-191.36 426.666667-426.666667 426.666667z m0-789.333334C312.106667 149.333333 149.333333 312.106667 149.333333 512s162.773333 362.666667 362.666667 362.666667 362.666667-162.773333 362.666667-362.666667S711.893333 149.333333 512 149.333333z"  /><path fill="#2c2c2c" d="M512 450.133333c-8.106667 0-16.426667-3.2-22.613333-9.386666l-102.4-102.4c-12.586667-12.586667-12.586667-32.853333 0-45.226667s32.853333-12.586667 45.226666 0L512 372.906667l79.786667-79.786667c12.586667-12.586667 32.853333-12.586667 45.226666 0s12.586667 32.853333 0 45.226667l-102.4 102.4c-6.186667 6.4-14.506667 9.386667-22.613333 9.386666z"  /><path fill="#2c2c2c" d="M661.333333 492.8H362.666667c-17.706667 0-32-14.293333-32-32s14.293333-32 32-32h298.666666c17.706667 0 32 14.293333 32 32s-14.293333 32-32 32zM672 612.266667h-320c-17.706667 0-32-14.293333-32-32s14.293333-32 32-32h320c17.706667 0 32 14.293333 32 32s-14.293333 32-32 32z"  /><path fill="#2c2c2c" d="M512 740.266667c-17.706667 0-32-14.293333-32-32v-298.666667c0-17.706667 14.293333-32 32-32s32 14.293333 32 32v298.666667c0 17.706667-14.293333 32-32 32z"  /></svg>