<?xml version="1.0" standalone="no"?><!DOCTYPE svg PUBLIC "-//W3C//DTD SVG 1.1//EN" "http://www.w3.org/Graphics/SVG/1.1/DTD/svg11.dtd"><svg class="icon" width="200px" height="200.00px" viewBox="0 0 1024 1024" version="1.1" xmlns="http://www.w3.org/2000/svg"><path fill="#2c2c2c" d="M512 894.72c-6.186667 0-12.586667-1.92-17.92-5.546667l-200.746667-136.533333A286.122667 286.122667 0 0 1 181.333333 524.8V295.466667c0-31.573333 19.84-59.733333 49.493334-70.4l256-91.52a74.88 74.88 0 0 1 50.133333 0l256 91.52c29.653333 10.666667 49.493333 38.826667 49.493333 70.4V524.8c0 88.96-40.106667 171.52-110.08 226.56-0.64 0.426667-1.066667 0.853333-1.706666 1.28l-200.746667 136.533333c-5.333333 3.626667-11.733333 5.546667-17.92 5.546667z m-181.973333-194.346667L512 823.893333l181.973333-123.52c53.973333-42.666667 84.693333-106.666667 84.693334-175.573333V295.466667c0-4.48-2.773333-8.533333-7.04-10.026667l-256-91.52a10.602667 10.602667 0 0 0-7.253334 0l-256 91.52c-4.266667 1.493333-7.04 5.546667-7.04 10.026667V524.8c0 68.906667 30.933333 132.906667 84.693334 175.573333z m382.72 25.813334z"  /><path fill="#2c2c2c" d="M384 372.266667h256v64H384zM373.333333 569.6h277.333334v64h-277.333334z"  /><path fill="#2c2c2c" d="M480 372.266667h64v256h-64z"  /></svg>