<?xml version="1.0" standalone="no"?><!DOCTYPE svg PUBLIC "-//W3C//DTD SVG 1.1//EN" "http://www.w3.org/Graphics/SVG/1.1/DTD/svg11.dtd"><svg t="1648993399717" class="icon" viewBox="0 0 1024 1024" version="1.1" xmlns="http://www.w3.org/2000/svg" p-id="3487" xmlns:xlink="http://www.w3.org/1999/xlink" width="200" height="200"><defs><style type="text/css">@font-face { font-family: feedback-iconfont; src: url("//at.alicdn.com/t/font_1031158_u69w8yhxdu.woff2?t=1630033759944") format("woff2"), url("//at.alicdn.com/t/font_1031158_u69w8yhxdu.woff?t=1630033759944") format("woff"), url("//at.alicdn.com/t/font_1031158_u69w8yhxdu.ttf?t=1630033759944") format("truetype"); }
</style></defs><path d="M403.3 300.6c-9.3 0-16.8-7.5-16.8-16.7 0-9.3 7.5-16.9 16.7-16.9l120.6-0.6h0.1c9.3 0 16.8 7.5 16.8 16.7 0 9.3-7.5 16.9-16.7 16.9l-120.7 0.6c0.1 0 0 0 0 0z" fill="#454545" p-id="3488"></path><path d="M455.1 885.6c-3 0-6.1-0.8-8.8-2.5L247.6 761.9c-6.6-4-9.6-12.1-7.3-19.5l145.3-456.2-118.8-119.3c-4.7-4.8-6.2-12.1-3.6-18.4 2.6-6.3 8.7-10.4 15.5-10.4h375.8c6.9 0 13.1 4.2 15.6 10.6 2.6 6.4 1 13.7-4 18.4L541.5 286.5l144 456c2.4 7.6-0.8 15.8-7.8 19.7L463.3 883.4c-2.5 1.5-5.4 2.2-8.2 2.2zM276.4 740.1l179 109.2 193.9-109.6-143-452.9c-1.9-6.1-0.2-12.8 4.4-17.2l102-97.6H319.3l97.4 97.9c4.4 4.5 6 11 4.1 17L276.4 740.1z" fill="#454545" p-id="3489"></path><path d="M646.6 615.9c-7.4 0-14.1-4.9-16.2-12.3-2.5-9 2.7-18.2 11.7-20.7l94.9-26.5L513.2 303c-6.2-7-5.5-17.6 1.5-23.8 7-6.2 17.6-5.5 23.8 1.5l241.4 273.4c3.8 4.3 5.2 10.4 3.5 15.9-1.6 5.6-6 9.9-11.6 11.4l-120.7 33.7c-1.5 0.6-3 0.8-4.5 0.8z" fill="#454545" p-id="3490"></path></svg>