<?xml version="1.0" standalone="no"?><!DOCTYPE svg PUBLIC "-//W3C//DTD SVG 1.1//EN" "http://www.w3.org/Graphics/SVG/1.1/DTD/svg11.dtd"><svg class="icon" width="200px" height="200.00px" viewBox="0 0 1024 1024" version="1.1" xmlns="http://www.w3.org/2000/svg"><path fill="#2c2c2c" d="M702.08 879.146667c-11.946667 0-23.893333-2.773333-34.773333-8.746667l-150.186667-78.933333a10.453333 10.453333 0 0 0-10.026667 0l-150.186666 78.933333c-25.386667 13.226667-55.466667 11.093333-78.72-5.76a74.005333 74.005333 0 0 1-29.653334-73.173333L277.333333 624.213333a11.434667 11.434667 0 0 0-2.986666-9.6l-121.6-118.4c-20.48-20.053333-27.733333-49.28-18.986667-76.586666 8.96-27.306667 32-46.72 60.373333-50.773334l167.893334-24.32a10.666667 10.666667 0 0 0 8.106666-5.973333l75.093334-152.106667c12.586667-25.813333 38.4-41.6 66.986666-41.6s54.4 16 66.986667 41.6l75.093333 152.106667c1.493333 3.2 4.693333 5.333333 8.106667 5.973333l167.893333 24.32c28.373333 4.053333 51.413333 23.68 60.373334 50.773334a73.6 73.6 0 0 1-18.986667 76.586666l-121.6 118.4c-2.56 2.56-3.626667 5.973333-2.986667 9.6l28.586667 167.253334c4.906667 28.16-6.613333 56.32-29.653333 73.173333-13.226667 9.813333-28.586667 14.506667-43.946667 14.506667zM512 726.4c11.946667 0 23.893333 2.773333 34.773333 8.533333l150.186667 78.933334c5.12 2.773333 9.386667 0.64 11.306667-0.853334a10.24 10.24 0 0 0 4.266666-10.453333l-28.586666-167.253333c-4.266667-24.32 3.84-49.066667 21.546666-66.133334l121.6-118.4c4.266667-4.053333 3.413333-8.746667 2.773334-11.093333a10.56 10.56 0 0 0-8.746667-7.253333l-168.106667-24.32a74.837333 74.837333 0 0 1-56.32-40.96l-75.093333-152.32a9.984 9.984 0 0 0-9.6-5.973334c-2.56 0-7.04 0.853333-9.6 5.973334l-75.093333 152.106666a75.349333 75.349333 0 0 1-56.32 40.96l-167.893334 24.32c-5.76 0.853333-7.893333 4.906667-8.746666 7.253334s-1.493333 7.04 2.773333 11.093333l121.6 118.4c17.706667 17.066667 25.6 41.813333 21.546667 66.133333l-28.8 167.253334c-1.066667 5.76 2.346667 8.96 4.266666 10.453333 1.92 1.493333 6.186667 3.626667 11.306667 0.853333l150.186667-78.933333a76.586667 76.586667 0 0 1 34.773333-8.32z"  /></svg>