<?xml version="1.0" standalone="no"?><!DOCTYPE svg PUBLIC "-//W3C//DTD SVG 1.1//EN" "http://www.w3.org/Graphics/SVG/1.1/DTD/svg11.dtd"><svg t="1648993397630" class="icon" viewBox="0 0 1024 1024" version="1.1" xmlns="http://www.w3.org/2000/svg" p-id="3333" xmlns:xlink="http://www.w3.org/1999/xlink" width="200" height="200"><defs><style type="text/css">@font-face { font-family: feedback-iconfont; src: url("//at.alicdn.com/t/font_1031158_u69w8yhxdu.woff2?t=1630033759944") format("woff2"), url("//at.alicdn.com/t/font_1031158_u69w8yhxdu.woff?t=1630033759944") format("woff"), url("//at.alicdn.com/t/font_1031158_u69w8yhxdu.ttf?t=1630033759944") format("truetype"); }
</style></defs><path d="M515 931c-56 0-110.4-11-161.5-32.6-49.4-20.9-93.8-50.8-131.9-88.9s-68-82.5-88.9-131.9C111 626.4 100 572 100 516s11-110.4 32.6-161.5c20.9-49.4 50.8-93.8 88.9-131.9s82.5-68 131.9-88.9C404.6 112 459 101 515 101s110.4 11 161.5 32.6c49.4 20.9 93.8 50.8 131.9 88.9s68 82.5 88.9 131.9C919 405.6 930 460 930 516s-11 110.4-32.6 161.5c-20.9 49.4-50.8 93.8-88.9 131.9s-82.5 68-131.9 88.9C625.4 920 571 931 515 931z m0-796c-51.4 0-101.3 10.1-148.3 29.9-45.4 19.2-86.1 46.7-121.1 81.7s-62.5 75.7-81.7 121.1c-19.8 47-29.9 96.9-29.9 148.3s10.1 101.3 29.9 148.3c19.2 45.4 46.7 86.1 81.7 121.1s75.7 62.5 121.1 81.7C413.7 887 463.6 897 515 897s101.3-10.1 148.3-29.9c45.4-19.2 86.1-46.7 121.1-81.7s62.5-75.7 81.7-121.1C886 617.3 896 567.4 896 516s-10.1-101.3-29.9-148.3c-19.2-45.4-46.7-86.1-81.7-121.1s-75.7-62.5-121.1-81.7c-47-19.8-96.9-29.9-148.3-29.9z" fill="#454545" p-id="3334"></path><path d="M833.9 787.2C734 722.7 683.3 634.1 683.3 524c0-111.3 51.5-190.4 153-235l13.7 31.1c-44.3 19.5-77.8 46.4-99.7 80-21.9 33.6-33 75.3-33 123.9 0 49 11.3 93.4 33.4 132.1 22.4 38.9 56.6 73.4 101.7 102.5l-18.5 28.6zM290.2 850.2l-22.3-25.7c58.5-50.7 102.9-102 131.9-152.3 28.5-49.4 42.9-99.2 42.9-148.2s-14.4-98.8-42.9-148.2c-29-50.3-73.4-101.6-131.9-152.3l22.3-25.7c61.4 53.2 108.2 107.4 139.1 161 31.5 54.6 47.4 110.2 47.4 165.2s-16 110.6-47.4 165.2c-30.9 53.6-77.7 107.8-139.1 161zM607 903.9c-25.4-166.2-44.2-295.1-55.7-383-11.7-88.9-11.8-218.8-0.1-386l33.8 2.3c-11.5 165-11.5 292.6-0.1 379.2 11.5 87.7 30.3 216.3 55.6 382.3l-33.5 5.2z" fill="#454545" p-id="3335"></path><path d="M564.6 368.2c-38.2 0-74.4-15.7-107.8-46.7-36.4-33.8-70.4-87.1-101.2-158.5l31.2-13.4c28.9 67 60.2 116.4 93.1 147 31.2 29 63.3 41 98.1 36.8 34.9-4.3 60.2-18.4 77.4-43.2 17.8-25.7 26.8-63.5 26.8-112.4h34c0 55.9-11 100.2-32.8 131.7-22.6 32.8-56.7 52.2-101.2 57.6-5.9 0.7-11.8 1.1-17.6 1.1zM494.4 910.1h-34c0-63.2 10-113.7 29.8-150.2 20.9-38.6 52.9-62.5 94.9-71.2 42.1-8.7 78.9-0.5 109.3 24.3 28.9 23.6 52 62.8 68.6 116.5l-32.5 10.1c-14.6-47.2-34-81-57.6-100.2-22.4-18.3-48.9-24-81-17.3-32.2 6.7-55.7 24.4-71.9 54.1-16.9 31.4-25.6 76.5-25.6 133.9zM127.6 617.1l-8.6-32.9c167.2-43.9 300.8-73.8 397-89 97.2-15.3 231.7-14 399.8 3.9l-3.6 33.8c-165.1-17.6-296.7-19-390.9-4.1-95.1 15-227.6 44.7-393.7 88.3z" fill="#454545" p-id="3336"></path></svg>