<?xml version="1.0" standalone="no"?><!DOCTYPE svg PUBLIC "-//W3C//DTD SVG 1.1//EN" "http://www.w3.org/Graphics/SVG/1.1/DTD/svg11.dtd"><svg class="icon" width="200px" height="200.00px" viewBox="0 0 1024 1024" version="1.1" xmlns="http://www.w3.org/2000/svg"><path fill="#2c2c2c" d="M768.64 465.493333h-85.12c-17.706667 0-32-14.293333-32-32s14.293333-32 32-32h85.12c17.706667 0 32 14.293333 32 32s-14.506667 32-32 32zM555.52 465.493333h-85.12c-17.706667 0-32-14.293333-32-32s14.293333-32 32-32h85.12c17.706667 0 32 14.293333 32 32s-14.293333 32-32 32zM777.173333 614.613333h-85.12c-17.706667 0-32-14.293333-32-32s14.293333-32 32-32h85.12c17.706667 0 32 14.293333 32 32s-14.293333 32-32 32zM564.053333 614.613333h-85.12c-17.706667 0-32-14.293333-32-32s14.293333-32 32-32h85.12c17.706667 0 32 14.293333 32 32s-14.293333 32-32 32zM351.146667 614.613333h-85.333334c-17.706667 0-32-14.293333-32-32s14.293333-32 32-32h85.333334c17.706667 0 32 14.293333 32 32s-14.506667 32-32 32zM777.173333 763.733333h-85.12c-17.706667 0-32-14.293333-32-32s14.293333-32 32-32h85.12c17.706667 0 32 14.293333 32 32s-14.293333 32-32 32zM564.053333 763.733333h-85.12c-17.706667 0-32-14.293333-32-32s14.293333-32 32-32h85.12c17.706667 0 32 14.293333 32 32s-14.293333 32-32 32zM351.146667 763.733333h-85.333334c-17.706667 0-32-14.293333-32-32s14.293333-32 32-32h85.333334c17.706667 0 32 14.293333 32 32s-14.506667 32-32 32zM341.546667 318.506667c-17.706667 0-32-14.293333-32-32V158.72c0-17.706667 14.293333-32 32-32s32 14.293333 32 32v127.786667c0 17.706667-14.293333 32-32 32zM682.453333 318.506667c-17.706667 0-32-14.293333-32-32V158.72c0-17.706667 14.293333-32 32-32s32 14.293333 32 32v127.786667c0 17.706667-14.293333 32-32 32z"  /><path fill="#2c2c2c" d="M778.666667 897.28h-533.333334a117.546667 117.546667 0 0 1-117.333333-117.333333v-469.333334c0-64.64 52.693333-117.333333 117.333333-117.333333h533.333334c64.64 0 117.333333 52.693333 117.333333 117.333333v469.333334c0 64.853333-52.693333 117.333333-117.333333 117.333333z m-533.333334-640a53.333333 53.333333 0 0 0-53.333333 53.333333v469.333334a53.333333 53.333333 0 0 0 53.333333 53.333333h533.333334a53.333333 53.333333 0 0 0 53.333333-53.333333v-469.333334a53.333333 53.333333 0 0 0-53.333333-53.333333h-533.333334z"  /><path fill="#2c2c2c" d="M292.053333 498.986667c-8.533333 0-16.64-3.413333-22.613333-9.386667l-43.52-43.52a31.786667 31.786667 0 0 1 0-45.226667 31.786667 31.786667 0 0 1 45.226667 0l20.906666 20.906667 53.333334-53.333333c12.586667-12.586667 32.853333-12.586667 45.226666 0s12.586667 32.853333 0 45.226666l-75.946666 75.946667c-5.973333 5.973333-14.08 9.386667-22.613334 9.386667z"  /></svg>