<?xml version="1.0" standalone="no"?><!DOCTYPE svg PUBLIC "-//W3C//DTD SVG 1.1//EN" "http://www.w3.org/Graphics/SVG/1.1/DTD/svg11.dtd"><svg t="1648993404095" class="icon" viewBox="0 0 1024 1024" version="1.1" xmlns="http://www.w3.org/2000/svg" p-id="3641" xmlns:xlink="http://www.w3.org/1999/xlink" width="200" height="200"><defs><style type="text/css">@font-face { font-family: feedback-iconfont; src: url("//at.alicdn.com/t/font_1031158_u69w8yhxdu.woff2?t=1630033759944") format("woff2"), url("//at.alicdn.com/t/font_1031158_u69w8yhxdu.woff?t=1630033759944") format("woff"), url("//at.alicdn.com/t/font_1031158_u69w8yhxdu.ttf?t=1630033759944") format("truetype"); }
</style></defs><path d="M345 394c-27.6 0-50-22.4-50-50v-84c0-27.6 22.4-50 50-50s50 22.4 50 50v84c0 27.6-22.4 50-50 50z m0-150c-8.8 0-16 7.2-16 16v84c0 8.8 7.2 16 16 16s16-7.2 16-16v-84c0-8.8-7.2-16-16-16z" fill="#454545" p-id="3642"></path><path d="M806.5 831.4H217c-41.9 0-76-34.1-76-76V367.9c0-41.9 34.1-76 76-76h40.5c9.4 0 17 7.6 17 17s-7.6 17-17 17H217c-23.2 0-42 18.8-42 42v387.5c0 23.2 18.8 42 42 42h589.5c23.2 0 42-18.8 42-42V361c0-23.2-18.8-42-42-42H776c-9.4 0-17-7.6-17-17s7.6-17 17-17h30.5c41.9 0 76 34.1 76 76v394.4c0 41.9-34.1 76-76 76z" fill="#454545" p-id="3643"></path><path d="M692 394c-27.6 0-50-22.4-50-50v-84c0-27.6 22.4-50 50-50s50 22.4 50 50v84c0 27.6-22.4 50-50 50z m0-150c-8.8 0-16 7.2-16 16v84c0 8.8 7.2 16 16 16s16-7.2 16-16v-84c0-8.8-7.2-16-16-16zM312.5 482H236c-9.4 0-17-7.6-17-17s7.6-17 17-17h76.5c9.4 0 17 7.6 17 17s-7.6 17-17 17zM470.5 480H394c-9.4 0-17-7.6-17-17s7.6-17 17-17h76.5c9.4 0 17 7.6 17 17s-7.6 17-17 17zM628.5 481H552c-9.4 0-17-7.6-17-17s7.6-17 17-17h76.5c9.4 0 17 7.6 17 17s-7.6 17-17 17zM786.5 480H710c-9.4 0-17-7.6-17-17s7.6-17 17-17h76.5c9.4 0 17 7.6 17 17s-7.6 17-17 17zM312.5 552H236c-9.4 0-17-7.6-17-17s7.6-17 17-17h76.5c9.4 0 17 7.6 17 17s-7.6 17-17 17zM470.5 550H394c-9.4 0-17-7.6-17-17s7.6-17 17-17h76.5c9.4 0 17 7.6 17 17s-7.6 17-17 17zM628.5 551H552c-9.4 0-17-7.6-17-17s7.6-17 17-17h76.5c9.4 0 17 7.6 17 17s-7.6 17-17 17zM786.5 550H710c-9.4 0-17-7.6-17-17s7.6-17 17-17h76.5c9.4 0 17 7.6 17 17s-7.6 17-17 17zM312.5 622H236c-9.4 0-17-7.6-17-17s7.6-17 17-17h76.5c9.4 0 17 7.6 17 17s-7.6 17-17 17zM470.5 620H394c-9.4 0-17-7.6-17-17s7.6-17 17-17h76.5c9.4 0 17 7.6 17 17s-7.6 17-17 17zM628.5 621H552c-9.4 0-17-7.6-17-17s7.6-17 17-17h76.5c9.4 0 17 7.6 17 17s-7.6 17-17 17zM786.5 620H710c-9.4 0-17-7.6-17-17s7.6-17 17-17h76.5c9.4 0 17 7.6 17 17s-7.6 17-17 17zM312.5 692H236c-9.4 0-17-7.6-17-17s7.6-17 17-17h76.5c9.4 0 17 7.6 17 17s-7.6 17-17 17zM470.5 690H394c-9.4 0-17-7.6-17-17s7.6-17 17-17h76.5c9.4 0 17 7.6 17 17s-7.6 17-17 17zM628.5 691H552c-9.4 0-17-7.6-17-17s7.6-17 17-17h76.5c9.4 0 17 7.6 17 17s-7.6 17-17 17zM786.5 690H710c-9.4 0-17-7.6-17-17s7.6-17 17-17h76.5c9.4 0 17 7.6 17 17s-7.6 17-17 17zM606.4 323.2H427.2c-9.4 0-17-7.6-17-17s7.6-17 17-17h179.2c9.4 0 17 7.6 17 17s-7.6 17-17 17z" fill="#454545" p-id="3644"></path></svg>