<?xml version="1.0" standalone="no"?><!DOCTYPE svg PUBLIC "-//W3C//DTD SVG 1.1//EN" "http://www.w3.org/Graphics/SVG/1.1/DTD/svg11.dtd"><svg class="icon" width="200px" height="200.00px" viewBox="0 0 1024 1024" version="1.1" xmlns="http://www.w3.org/2000/svg"><path fill="#2c2c2c" d="M799.786667 784.64h-64v-341.333333c0-123.52-100.48-224-224-224s-224 100.48-224 224v341.333333h-64v-341.333333c0-158.72 129.28-288 288-288s288 129.28 288 288v341.333333z"  /><path fill="#2c2c2c" d="M512 218.24c-17.706667 0-32-14.293333-32-32V118.4c0-17.706667 14.293333-32 32-32s32 14.293333 32 32v67.84c0 17.706667-14.293333 32-32 32zM853.333333 808.96H170.666667c-17.706667 0-32-14.293333-32-32s14.293333-32 32-32h682.666666c17.706667 0 32 14.293333 32 32s-14.293333 32-32 32z"  /><path fill="#2c2c2c" d="M511.786667 937.6c-83.626667 0-151.893333-68.053333-151.893334-151.893333 0-17.706667 14.293333-32 32-32s32 14.293333 32 32c0 48.426667 39.466667 87.893333 87.893334 87.893333s87.893333-39.466667 87.893333-87.893333c0-17.706667 14.293333-32 32-32s32 14.293333 32 32c0 83.626667-68.053333 151.893333-151.893333 151.893333z"  /></svg>