<?xml version="1.0" standalone="no"?><!DOCTYPE svg PUBLIC "-//W3C//DTD SVG 1.1//EN" "http://www.w3.org/Graphics/SVG/1.1/DTD/svg11.dtd"><svg class="icon" width="200px" height="200.00px" viewBox="0 0 1024 1024" version="1.1" xmlns="http://www.w3.org/2000/svg"><path fill="#2c2c2c" d="M881.92 561.92c-8.106667 0-16.426667-3.2-22.613333-9.386667L512 205.226667 164.693333 552.533333c-12.586667 12.586667-32.853333 12.586667-45.226666 0s-12.586667-32.853333 0-45.226666L489.386667 137.386667a31.786667 31.786667 0 0 1 45.226666 0L904.533333 507.306667c12.586667 12.586667 12.586667 32.853333 0 45.226666-6.186667 6.4-14.293333 9.386667-22.613333 9.386667z"  /><path fill="#2c2c2c" d="M776.746667 896H247.253333c-17.706667 0-32-14.293333-32-32V429.013333c0-17.706667 14.293333-32 32-32s32 14.293333 32 32V832h465.706667V429.013333c0-17.706667 14.293333-32 32-32s32 14.293333 32 32V864c-0.213333 17.706667-14.506667 32-32.213333 32z"  /><path fill="#2c2c2c" d="M512 672a117.546667 117.546667 0 0 1-117.333333-117.333333c0-64.64 52.693333-117.333333 117.333333-117.333334s117.333333 52.693333 117.333333 117.333334-52.693333 117.333333-117.333333 117.333333z m0-170.666667a53.333333 53.333333 0 0 0 0 106.666667 53.333333 53.333333 0 0 0 0-106.666667z"  /></svg>