<?xml version="1.0" standalone="no"?><!DOCTYPE svg PUBLIC "-//W3C//DTD SVG 1.1//EN" "http://www.w3.org/Graphics/SVG/1.1/DTD/svg11.dtd"><svg class="icon" width="200px" height="200.00px" viewBox="0 0 1024 1024" version="1.1" xmlns="http://www.w3.org/2000/svg"><path fill="#2c2c2c" d="M871.68 496.426667c20.48-20.053333 27.733333-49.28 18.986667-76.586667a74.154667 74.154667 0 0 0-60.373334-50.773333l-167.893333-24.32a10.666667 10.666667 0 0 1-8.106667-5.973334l-75.093333-152.106666a73.941333 73.941333 0 0 0-66.986667-41.6c-28.586667 0-54.4 16-66.986666 41.6l-75.093334 152.106666c-1.493333 3.2-4.693333 5.333333-8.106666 5.973334L193.706667 369.066667a74.218667 74.218667 0 0 0-60.373334 50.773333 73.6 73.6 0 0 0 18.986667 76.586667l121.6 118.4c2.56 2.56 3.626667 5.973333 2.986667 9.386666l-28.586667 167.253334c-4.906667 28.16 6.613333 56.32 29.653333 73.173333 13.013333 9.6 28.373333 14.293333 43.946667 14.293333 11.946667 0 23.893333-2.773333 34.773333-8.746666l150.186667-78.933334a10.453333 10.453333 0 0 1 10.026667 0l150.186666 78.933334c25.386667 13.44 55.466667 11.093333 78.72-5.76 23.253333-16.853333 34.56-44.8 29.653334-73.173334l-28.586667-167.253333c-0.64-3.413333 0.64-7.04 2.986667-9.386667l121.813333-118.186666z"  /></svg>