<?xml version="1.0" standalone="no"?><!DOCTYPE svg PUBLIC "-//W3C//DTD SVG 1.1//EN" "http://www.w3.org/Graphics/SVG/1.1/DTD/svg11.dtd"><svg class="icon" width="200px" height="200.00px" viewBox="0 0 1024 1024" version="1.1" xmlns="http://www.w3.org/2000/svg"><path fill="#2c2c2c" d="M851.626667 384l-37.333334 426.666667H209.706667L172.373333 384h679.253334m16.426666-64H155.946667c-28.8 0-51.626667 22.4-49.066667 48.426667L147.626667 834.133333c2.133333 23.04 23.466667 40.746667 49.066666 40.746667h630.613334c25.6 0 46.933333-17.706667 49.066666-40.746667l40.746667-465.706666c2.56-26.026667-20.266667-48.426667-49.066667-48.426667z"  /><path fill="#2c2c2c" d="M640 522.666667H384c-17.706667 0-32-14.293333-32-32s14.293333-32 32-32h256c17.706667 0 32 14.293333 32 32s-14.293333 32-32 32zM810.666667 373.333333h-64v-90.666666c-1.92-1.706667-7.253333-4.906667-16-4.906667H499.413333c-21.12 0-40.96-6.613333-55.893333-18.773333l-50.773333-41.386667c-2.56-2.133333-8.106667-4.48-15.573334-4.48h-83.626666c-8.746667 0-14.08 2.986667-16 4.693333v155.306667h-64v-157.013333C213.333333 178.773333 248.533333 149.333333 293.333333 149.333333h83.626667c21.12 0 40.96 6.613333 55.893333 18.773334l50.773334 41.386666c2.56 2.133333 8.106667 4.48 15.573333 4.48h231.253333c44.8 0 80 29.44 80 66.986667v92.373333z"  /></svg>