<?xml version="1.0" standalone="no"?><!DOCTYPE svg PUBLIC "-//W3C//DTD SVG 1.1//EN" "http://www.w3.org/Graphics/SVG/1.1/DTD/svg11.dtd"><svg class="icon" width="200px" height="200.00px" viewBox="0 0 1024 1024" version="1.1" xmlns="http://www.w3.org/2000/svg"><path fill="#2c2c2c" d="M512 506.666667c-105.813333 0-192-86.186667-192-192s86.186667-192 192-192 192 86.186667 192 192-86.186667 192-192 192z m0-320c-70.613333 0-128 57.386667-128 128s57.386667 128 128 128 128-57.386667 128-128-57.386667-128-128-128zM712.32 901.333333H311.68c-34.133333 0-66.346667-14.72-88.746667-40.533333a118.144 118.144 0 0 1-27.52-93.44l18.346667-128c8.32-57.386667 58.24-100.693333 116.266667-100.693333h363.946666c58.026667 0 107.946667 43.306667 116.266667 100.693333l18.346667 128c4.693333 33.706667-5.333333 67.84-27.52 93.44a117.546667 117.546667 0 0 1-88.746667 40.533333z m-382.293333-298.666666c-26.453333 0-49.066667 19.626667-52.906667 45.866666l-18.346667 128c-2.133333 15.36 2.346667 30.72 12.373334 42.453334 10.24 11.733333 24.746667 18.346667 40.32 18.346666h400.64c15.36 0 30.08-6.613333 40.32-18.346666 10.026667-11.733333 14.72-27.093333 12.586666-42.453334l-18.346666-128a53.653333 53.653333 0 0 0-52.693334-45.866666H330.026667z"  /><path fill="#2c2c2c" d="M687.786667 752h-85.333334c-17.706667 0-32-14.293333-32-32s14.293333-32 32-32h85.333334c17.706667 0 32 14.293333 32 32s-14.293333 32-32 32z"  /></svg>