<?xml version="1.0" standalone="no"?><!DOCTYPE svg PUBLIC "-//W3C//DTD SVG 1.1//EN" "http://www.w3.org/Graphics/SVG/1.1/DTD/svg11.dtd"><svg class="icon" width="200px" height="200.00px" viewBox="0 0 1024 1024" version="1.1" xmlns="http://www.w3.org/2000/svg"><path fill="#2c2c2c" d="M369.5 447C290.4 447 226 382.6 226 303.5S290.4 160 369.5 160 513 224.4 513 303.5 448.6 447 369.5 447z m0-253C309.1 194 260 243.1 260 303.5S309.1 413 369.5 413 479 363.9 479 303.5 429.9 194 369.5 194z"  /><path fill="#2c2c2c" d="M369.5 863.8c-97 0-190.5-35.2-263.3-99.1-2.7-2.4-4.6-5.5-5.4-9-4.5-20-6.8-40.5-6.8-61.2 0-73.6 28.7-142.8 80.7-194.8S295.9 419 369.5 419s142.8 28.7 194.8 80.7S645 620.9 645 694.5c0 20.6-2.3 41.2-6.8 61.2-0.8 3.5-2.7 6.7-5.4 9-72.8 63.9-166.3 99.1-263.3 99.1z m-236.7-121c66 56.2 149.8 87 236.7 87 86.9 0 170.7-30.9 236.7-87 3.2-15.8 4.8-32 4.8-48.3 0-64.5-25.1-125.2-70.7-170.8C494.7 478.1 434 453 369.5 453s-125.2 25.1-170.8 70.7S128 630 128 694.5c0 16.3 1.6 32.5 4.8 48.3zM696.5 465C629 465 574 410 574 342.5S629 220 696.5 220 819 275 819 342.5 764 465 696.5 465z m0-211c-48.8 0-88.5 39.7-88.5 88.5s39.7 88.5 88.5 88.5 88.5-39.7 88.5-88.5-39.7-88.5-88.5-88.5z"  /><path fill="#2c2c2c" d="M696.5 813c-17 0-34.1-1.3-50.8-3.8-9.3-1.4-15.7-10.1-14.2-19.4 1.4-9.3 10.1-15.7 19.4-14.2 15 2.3 30.4 3.4 45.7 3.4 71.4 0 140.3-25.3 194.7-71.3 2.5-12.7 3.8-25.8 3.8-38.8C895 559.2 806 470 696.5 470c-33.8 0-67.2 8.7-96.5 25-8.2 4.6-18.6 1.6-23.1-6.6-4.6-8.2-1.6-18.6 6.6-23.1C617.9 446.1 657 436 696.6 436c62.1 0 120.5 24.2 164.4 68.2 43.9 44 68.1 102.4 68.1 164.6 0 17.4-1.9 34.8-5.8 51.7-0.8 3.5-2.7 6.6-5.4 9C856.7 783.4 778 813 696.5 813z"  /></svg>