<?xml version="1.0" standalone="no"?><!DOCTYPE svg PUBLIC "-//W3C//DTD SVG 1.1//EN" "http://www.w3.org/Graphics/SVG/1.1/DTD/svg11.dtd"><svg class="icon" width="200px" height="200.00px" viewBox="0 0 1024 1024" version="1.1" xmlns="http://www.w3.org/2000/svg"><path d="M836.693333 745.173333H588.373333c-17.706667 0-32-14.293333-32-32s14.293333-32 32-32h248.32c17.706667 0 32 14.293333 32 32s-14.293333 32-32 32z" fill="#2E5CAA" /><path d="M738.773333 843.306667c-8.106667 0-16.426667-3.2-22.613333-9.386667a31.786667 31.786667 0 0 1 0-45.226667l75.306667-75.306666-75.306667-75.306667c-12.586667-12.586667-12.586667-32.853333 0-45.226667s32.853333-12.586667 45.226667 0l97.92 97.92c12.586667 12.586667 12.586667 32.853333 0 45.226667l-97.92 97.92c-6.4 6.186667-14.506667 9.386667-22.613334 9.386667z" fill="#2E5CAA" /><path d="M472.96 506.666667c-105.813333 0-192-86.186667-192-192s86.186667-192 192-192 192 86.186667 192 192-86.186667 192-192 192z m0-320c-70.613333 0-128 57.386667-128 128s57.386667 128 128 128 128-57.386667 128-128-57.386667-128-128-128zM673.28 901.333333H272.64c-34.133333 0-66.346667-14.72-88.746667-40.533333a117.376 117.376 0 0 1-27.52-93.44l18.346667-128c8.106667-57.386667 58.026667-100.693333 116.053333-100.693333H654.933333c17.706667 0 32 14.293333 32 32s-14.293333 32-32 32H290.986667c-26.453333 0-49.066667 19.626667-52.693334 45.866666l-18.346666 128c-2.133333 15.36 2.346667 30.72 12.586666 42.453334s24.746667 18.346667 40.32 18.346666h400.64c17.706667 0 32 14.293333 32 32s-14.72 32-32.213333 32z" fill="#2B2C2C" /></svg>