<?xml version="1.0" standalone="no"?><!DOCTYPE svg PUBLIC "-//W3C//DTD SVG 1.1//EN" "http://www.w3.org/Graphics/SVG/1.1/DTD/svg11.dtd"><svg class="icon" width="200px" height="200.00px" viewBox="0 0 1024 1024" version="1.1" xmlns="http://www.w3.org/2000/svg"><path fill="#2c2c2c" d="M680 901H377c-52.9 0-96-43.1-96-96V239c0-52.9 43.1-96 96-96h303c52.9 0 96 43.1 96 96v566c0 52.9-43.1 96-96 96zM377 177c-34.2 0-62 27.8-62 62v566c0 34.2 27.8 62 62 62h303c34.2 0 62-27.8 62-62V239c0-34.2-27.8-62-62-62H377z"  /><path fill="#2c2c2c" d="M537.5 443C474.9 443 424 392.1 424 329.5S474.9 216 537.5 216 651 266.9 651 329.5 600.1 443 537.5 443z m0-193c-43.8 0-79.5 35.7-79.5 79.5s35.7 79.5 79.5 79.5 79.5-35.7 79.5-79.5-35.7-79.5-79.5-79.5z"  /><path fill="#2c2c2c" d="M583.7 597.1L537 418.2l71.7-34.6L696.9 547h-75.2l-38 50.1zM577 436.7l21.9 84 5.8-7.7h35.2l-45.7-84.6-17.2 8.3zM482.8 591.9l-37.9-50.1h-75.2l88.2-163.4 71.7 34.6-46.8 178.9z m-56.1-84.1h35.2l5.8 7.7 21.9-84-17.2-8.3-45.7 84.6zM677.4 823.5H508c-9.4 0-17-7.6-17-17s7.6-17 17-17h169.4c9.4 0 17 7.6 17 17s-7.6 17-17 17z m-3.9-89.5H508c-9.4 0-17-7.6-17-17s7.6-17 17-17h165.5c9.4 0 17 7.6 17 17s-7.6 17-17 17zM800.4 866.2c-1.2 0-2.5-0.1-3.7-0.4-9.2-2.1-14.9-11.2-12.9-20.3L903 315.1c7.5-33.3-11.2-66.8-43.4-78l-64.8-22.5c-8.9-3.1-13.6-12.8-10.5-21.6 3.1-8.9 12.8-13.6 21.6-10.5l64.9 22.5c48.5 16.9 76.6 67.4 65.4 117.5L817 852.9c-1.8 7.9-8.8 13.3-16.6 13.3zM256 866.2c-7.8 0-14.8-5.4-16.6-13.3L120.2 322.5C109 272.4 137.1 221.9 185.6 205l64.8-22.5c8.9-3.1 18.6 1.6 21.6 10.5 3.1 8.9-1.6 18.6-10.5 21.6l-64.7 22.5c-32.2 11.2-50.8 44.7-43.4 78l119.2 530.4c2.1 9.2-3.7 18.3-12.9 20.3-1.2 0.2-2.5 0.4-3.7 0.4z"  /><path fill="#2c2c2c" d="M242.6 446.1c-2.8 0-5.6-0.7-8.2-2.1-28.6-15.8-46.4-45.8-46.4-78.5 0-36.7 22-69.2 55.9-83 8.7-3.5 18.6 0.7 22.1 9.4 3.5 8.7-0.7 18.6-9.4 22.1-21.1 8.5-34.7 28.7-34.7 51.5 0 20.3 11 38.9 28.8 48.7 8.2 4.5 11.2 14.9 6.7 23.1-3 5.6-8.8 8.8-14.8 8.8zM813.9 446.1c-6 0-11.8-3.2-14.9-8.8-4.5-8.2-1.5-18.6 6.7-23.1 17.8-9.8 28.8-28.4 28.8-48.7 0-22.7-13.6-42.9-34.7-51.5-8.7-3.5-12.9-13.4-9.4-22.1 3.5-8.7 13.4-12.9 22.1-9.4 34 13.8 55.9 46.3 55.9 83 0 32.7-17.8 62.7-46.5 78.5-2.5 1.4-5.3 2.1-8 2.1zM422.5 825c-34.5 0-62.5-28-62.5-62.5s28-62.5 62.5-62.5 62.5 28 62.5 62.5-28 62.5-62.5 62.5z m0-91c-15.7 0-28.5 12.8-28.5 28.5s12.8 28.5 28.5 28.5 28.5-12.8 28.5-28.5-12.8-28.5-28.5-28.5z"  /></svg>