<?xml version="1.0" standalone="no"?><!DOCTYPE svg PUBLIC "-//W3C//DTD SVG 1.1//EN" "http://www.w3.org/Graphics/SVG/1.1/DTD/svg11.dtd"><svg class="icon" width="200px" height="200.00px" viewBox="0 0 1024 1024" version="1.1" xmlns="http://www.w3.org/2000/svg"><path d="M693.333333 896h-362.666666C218.88 896 128 805.12 128 693.333333v-362.666666C128 218.88 218.88 128 330.666667 128h362.666666c111.786667 0 202.666667 90.88 202.666667 202.666667v362.666666c0 111.786667-90.88 202.666667-202.666667 202.666667z m-362.666666-704C254.293333 192 192 254.293333 192 330.666667v362.666666c0 76.373333 62.293333 138.666667 138.666667 138.666667h362.666666c76.373333 0 138.666667-62.293333 138.666667-138.666667v-362.666666c0-76.373333-62.293333-138.666667-138.666667-138.666667h-362.666666z" fill="#2B2C2C" /><path d="M618.453333 727.68c-8.32 0-16.426667-1.92-24.106666-5.973333L512 678.4l-82.133333 43.306667c-17.706667 9.173333-38.613333 7.68-54.613334-4.053334a51.754667 51.754667 0 0 1-20.693333-50.773333l15.786667-91.52-66.56-64.853333c-14.293333-13.866667-19.2-34.133333-13.226667-53.12 6.186667-18.986667 22.186667-32.426667 41.813333-35.413334l91.946667-13.44 41.173333-83.413333c8.746667-17.92 26.666667-29.013333 46.506667-29.013333 19.84 0 37.76 11.093333 46.506667 29.013333l41.173333 83.413333 91.946667 13.44c19.626667 2.773333 35.84 16.426667 41.813333 35.413334s1.066667 39.253333-13.226667 53.12l-66.56 64.853333 15.786667 91.52c3.413333 19.626667-4.48 39.04-20.693333 50.773333-8.96 6.613333-19.626667 10.026667-30.293334 10.026667z m-100.693333-52.266667z m18.346667-56.746666l66.133333 34.773333-12.586667-73.6c-2.773333-16.853333 2.773333-34.133333 14.933334-45.866667l53.546666-52.053333-73.813333-10.666667c-16.853333-2.56-31.573333-13.013333-39.04-28.373333L512 375.68l-33.066667 66.986667c-7.466667 15.36-22.186667 25.813333-39.04 28.373333l-74.026666 10.666667 53.546666 52.053333c12.16 11.946667 17.706667 29.013333 14.933334 45.866667l-12.586667 73.6 66.133333-34.773334c15.146667-7.68 33.28-7.68 48.213334 0.213334z" fill="#2E5CAA" /></svg>