<?xml version="1.0" standalone="no"?><!DOCTYPE svg PUBLIC "-//W3C//DTD SVG 1.1//EN" "http://www.w3.org/Graphics/SVG/1.1/DTD/svg11.dtd"><svg class="icon" width="200px" height="200.00px" viewBox="0 0 1024 1024" version="1.1" xmlns="http://www.w3.org/2000/svg"><path d="M693.333333 896h-362.666666C218.88 896 128 805.12 128 693.333333v-362.666666C128 218.88 218.88 128 330.666667 128h362.666666c111.786667 0 202.666667 90.88 202.666667 202.666667v362.666666c0 111.786667-90.88 202.666667-202.666667 202.666667z m-362.666666-704C254.293333 192 192 254.293333 192 330.666667v362.666666c0 76.373333 62.293333 138.666667 138.666667 138.666667h362.666666c76.373333 0 138.666667-62.293333 138.666667-138.666667v-362.666666c0-76.373333-62.293333-138.666667-138.666667-138.666667h-362.666666z" fill="#2B2C2C" /><path d="M337.066667 736c-17.706667 0-32-14.293333-32-32V468.053333c0-17.706667 14.293333-32 32-32s32 14.293333 32 32V704c0 17.706667-14.293333 32-32 32zM512 736c-17.706667 0-32-14.293333-32-32V320c0-17.706667 14.293333-32 32-32s32 14.293333 32 32v384c0 17.706667-14.293333 32-32 32zM690.773333 736c-17.706667 0-32-14.293333-32-32V468.053333c0-17.706667 14.293333-32 32-32s32 14.293333 32 32V704c0 17.706667-14.506667 32-32 32z" fill="#2E5CAA" /></svg>