<?xml version="1.0" standalone="no"?><!DOCTYPE svg PUBLIC "-//W3C//DTD SVG 1.1//EN" "http://www.w3.org/Graphics/SVG/1.1/DTD/svg11.dtd"><svg class="icon" width="200px" height="200.00px" viewBox="0 0 1024 1024" version="1.1" xmlns="http://www.w3.org/2000/svg"><path fill="#2c2c2c" d="M693.333333 896h-362.666666C218.88 896 128 805.12 128 693.333333v-362.666666C128 218.88 218.88 128 330.666667 128h362.666666c111.786667 0 202.666667 90.88 202.666667 202.666667v362.666666c0 111.786667-90.88 202.666667-202.666667 202.666667z m-362.666666-704C254.293333 192 192 254.293333 192 330.666667v362.666666c0 76.373333 62.293333 138.666667 138.666667 138.666667h362.666666c76.373333 0 138.666667-62.293333 138.666667-138.666667v-362.666666c0-76.373333-62.293333-138.666667-138.666667-138.666667h-362.666666z"  /><path fill="#2c2c2c" d="M682.666667 544H341.333333c-17.706667 0-32-14.293333-32-32s14.293333-32 32-32h341.333334c17.706667 0 32 14.293333 32 32s-14.293333 32-32 32z"  /><path fill="#2c2c2c" d="M512 714.666667c-17.706667 0-32-14.293333-32-32V341.333333c0-17.706667 14.293333-32 32-32s32 14.293333 32 32v341.333334c0 17.706667-14.293333 32-32 32z"  /></svg>