<?xml version="1.0" standalone="no"?><!DOCTYPE svg PUBLIC "-//W3C//DTD SVG 1.1//EN" "http://www.w3.org/Graphics/SVG/1.1/DTD/svg11.dtd"><svg class="icon" width="200px" height="200.00px" viewBox="0 0 1024 1024" version="1.1" xmlns="http://www.w3.org/2000/svg"><path fill="#2c2c2c" d="M511.786667 893.44c-144.213333 0-261.546667-117.333333-261.546667-261.546667v-171.52h64v171.52c0 109.013333 88.746667 197.546667 197.546667 197.546667s197.546667-88.746667 197.546666-197.546667v-171.52h64v171.52c0 144.213333-117.333333 261.546667-261.546666 261.546667z"  /><path fill="#2c2c2c" d="M510.933333 198.186667l296.32 181.12-296.32 181.12-296.32-181.12 296.32-181.12m0-67.626667c-7.68 0-15.36 2.133333-22.186666 6.186667L151.466667 342.826667a42.538667 42.538667 0 0 0 0 72.746666l337.28 206.08c6.826667 4.266667 14.506667 6.186667 22.186666 6.186667s15.36-2.133333 22.186667-6.186667l337.28-206.08a42.538667 42.538667 0 0 0 0-72.746666L533.333333 136.746667c-6.826667-4.266667-14.506667-6.186667-22.4-6.186667z"  /><path fill="#2c2c2c" d="M860.8 577.706667c-17.706667 0-32-14.293333-32-32v-170.666667c0-17.706667 14.293333-32 32-32s32 14.293333 32 32v170.666667c0 17.493333-14.293333 32-32 32z"  /></svg>