<?xml version="1.0" standalone="no"?><!DOCTYPE svg PUBLIC "-//W3C//DTD SVG 1.1//EN" "http://www.w3.org/Graphics/SVG/1.1/DTD/svg11.dtd"><svg class="icon" width="200px" height="200.00px" viewBox="0 0 1024 1024" version="1.1" xmlns="http://www.w3.org/2000/svg"><path fill="#2c2c2c" d="M814.933333 851.626667H209.066667a117.546667 117.546667 0 0 1-117.333334-117.333334V289.706667c0-64.64 52.693333-117.333333 117.333334-117.333334h605.866666c64.64 0 117.333333 52.693333 117.333334 117.333334v444.373333c0 64.853333-52.693333 117.546667-117.333334 117.546667zM209.066667 236.373333a53.333333 53.333333 0 0 0-53.333334 53.333334v444.373333a53.333333 53.333333 0 0 0 53.333334 53.333333h605.866666a53.333333 53.333333 0 0 0 53.333334-53.333333V289.706667a53.333333 53.333333 0 0 0-53.333334-53.333334H209.066667z"  /><path fill="#2c2c2c" d="M358.4 520.106667h-85.333333a53.333333 53.333333 0 0 1-53.333334-53.333334v-85.333333a53.333333 53.333333 0 0 1 53.333334-53.333333h85.333333a53.333333 53.333333 0 0 1 53.333333 53.333333v85.333333a53.333333 53.333333 0 0 1-53.333333 53.333334z m-74.666667-64h64v-64h-64v64zM764.8 456.106667h-256c-17.706667 0-32-14.293333-32-32s14.293333-32 32-32h256c17.706667 0 32 14.293333 32 32s-14.293333 32-32 32zM764.8 675.626667h-512c-17.706667 0-32-14.293333-32-32s14.293333-32 32-32h512c17.706667 0 32 14.293333 32 32s-14.293333 32-32 32z"  /></svg>