<?xml version="1.0" standalone="no"?><!DOCTYPE svg PUBLIC "-//W3C//DTD SVG 1.1//EN" "http://www.w3.org/Graphics/SVG/1.1/DTD/svg11.dtd"><svg class="icon" width="200px" height="200.00px" viewBox="0 0 1024 1024" version="1.1" xmlns="http://www.w3.org/2000/svg"><path fill="#2c2c2c" d="M368 490.666667h-128a117.546667 117.546667 0 0 1-117.333333-117.333334v-128c0-64.64 52.693333-117.333333 117.333333-117.333333h128c64.64 0 117.333333 52.693333 117.333333 117.333333v128c0 64.64-52.693333 117.333333-117.333333 117.333334z m-128-298.666667a53.333333 53.333333 0 0 0-53.333333 53.333333v128a53.333333 53.333333 0 0 0 53.333333 53.333334h128a53.333333 53.333333 0 0 0 53.333333-53.333334v-128a53.333333 53.333333 0 0 0-53.333333-53.333333h-128zM378.666667 896h-128a117.546667 117.546667 0 0 1-117.333334-117.333333v-128c0-64.64 52.693333-117.333333 117.333334-117.333334h128c64.64 0 117.333333 52.693333 117.333333 117.333334v128c0 64.64-52.693333 117.333333-117.333333 117.333333z m-128-298.666667a53.333333 53.333333 0 0 0-53.333334 53.333334v128a53.333333 53.333333 0 0 0 53.333334 53.333333h128a53.333333 53.333333 0 0 0 53.333333-53.333333v-128a53.333333 53.333333 0 0 0-53.333333-53.333334h-128zM784 896h-128a117.546667 117.546667 0 0 1-117.333333-117.333333v-128c0-64.64 52.693333-117.333333 117.333333-117.333334h128c64.64 0 117.333333 52.693333 117.333333 117.333334v128c0 64.64-52.693333 117.333333-117.333333 117.333333z m-128-298.666667a53.333333 53.333333 0 0 0-53.333333 53.333334v128a53.333333 53.333333 0 0 0 53.333333 53.333333h128a53.333333 53.333333 0 0 0 53.333333-53.333333v-128a53.333333 53.333333 0 0 0-53.333333-53.333334h-128zM709.333333 490.666667c-5.76 0-11.52-0.213333-17.28-0.853334-17.706667-1.706667-30.506667-17.28-28.8-34.773333 1.706667-17.706667 17.28-30.72 34.773334-28.8 3.84 0.213333 7.466667 0.426667 11.306666 0.426667 64.64 0 117.333333-52.693333 117.333334-117.333334S773.973333 192 709.333333 192s-117.333333 52.693333-117.333333 117.333333c0 4.906667 0.426667 9.813333 1.066667 14.72 2.133333 17.493333-10.24 33.493333-27.946667 35.626667-17.706667 1.92-33.493333-10.24-35.626667-27.946667-0.853333-7.466667-1.493333-14.72-1.493333-22.4 0-100.053333 81.28-181.333333 181.333333-181.333333s181.333333 81.28 181.333334 181.333333-81.28 181.333333-181.333334 181.333334z"  /></svg>