<?xml version="1.0" standalone="no"?><!DOCTYPE svg PUBLIC "-//W3C//DTD SVG 1.1//EN" "http://www.w3.org/Graphics/SVG/1.1/DTD/svg11.dtd"><svg class="icon" width="200px" height="200.00px" viewBox="0 0 1024 1024" version="1.1" xmlns="http://www.w3.org/2000/svg"><path fill="#2c2c2c" d="M223.1 864.4c-1.4 0-2.7-0.1-4.1-0.3-8.2-1.1-15.5-5.3-20.5-11.9-4.1-5.4-6.4-12.1-6.4-18.9V770H124c-22.6 0-41-18.4-41-41V406c0-22.6 18.4-41 41-41h535c22.6 0 41 18.4 41 41v323c0 22.6-18.4 41-41 41H356.6l-114.7 88c-5.5 4.2-12 6.4-18.8 6.4zM124 399c-3.9 0-7 3.1-7 7v323c0 3.9 3.1 7 7 7h102v91.3L345 736h314c3.9 0 7-3.1 7-7V406c0-3.9-3.1-7-7-7H124z"  /><path fill="#2c2c2c" d="M224.5 623c-30.6 0-55.5-24.9-55.5-55.5s24.9-55.5 55.5-55.5 55.5 24.9 55.5 55.5-24.9 55.5-55.5 55.5z m0-77c-11.9 0-21.5 9.6-21.5 21.5s9.6 21.5 21.5 21.5 21.5-9.6 21.5-21.5-9.6-21.5-21.5-21.5zM384.5 623c-30.6 0-55.5-24.9-55.5-55.5s24.9-55.5 55.5-55.5 55.5 24.9 55.5 55.5-24.9 55.5-55.5 55.5z m0-77c-11.9 0-21.5 9.6-21.5 21.5s9.6 21.5 21.5 21.5 21.5-9.6 21.5-21.5-9.6-21.5-21.5-21.5zM544.5 623c-30.6 0-55.5-24.9-55.5-55.5s24.9-55.5 55.5-55.5 55.5 24.9 55.5 55.5-24.9 55.5-55.5 55.5z m0-77c-11.9 0-21.5 9.6-21.5 21.5s9.6 21.5 21.5 21.5 21.5-9.6 21.5-21.5-9.6-21.5-21.5-21.5z"  /><path fill="#2c2c2c" d="M800.5 457c-30.6 0-55.5-24.9-55.5-55.5s24.9-55.5 55.5-55.5 55.5 24.9 55.5 55.5-24.9 55.5-55.5 55.5z m0-77c-11.9 0-21.5 9.6-21.5 21.5s9.6 21.5 21.5 21.5 21.5-9.6 21.5-21.5-9.6-21.5-21.5-21.5z"  /><path fill="#2c2c2c" d="M818.6 708.1c-3.7 0-7.3-1.2-10.3-3.5l-80.7-61.7c-7.5-5.7-8.9-16.4-3.2-23.8 5.7-7.5 16.4-8.9 23.8-3.2l53.4 40.8V586c0-9.4 7.6-17 17-17h86.8V229.4H362.3v92.2c0 9.4-7.6 17-17 17s-17-7.6-17-17V212.4c0-9.4 7.6-17 17-17h577.1c9.4 0 17 7.6 17 17V586c0 9.4-7.6 17-17 17h-86.8v88.1c0 6.5-3.7 12.4-9.5 15.2-2.3 1.2-4.9 1.8-7.5 1.8z"  /></svg>