<?xml version="1.0" standalone="no"?><!DOCTYPE svg PUBLIC "-//W3C//DTD SVG 1.1//EN" "http://www.w3.org/Graphics/SVG/1.1/DTD/svg11.dtd"><svg class="icon" width="200px" height="200.00px" viewBox="0 0 1024 1024" version="1.1" xmlns="http://www.w3.org/2000/svg"><path fill="#2c2c2c" d="M768 330.666667H256.213333c-17.706667 0-32-14.293333-32-32s14.293333-32 32-32a53.333333 53.333333 0 0 0 0-106.666667c-17.706667 0-32-14.293333-32-32s14.293333-32 32-32H768c64.64 0 117.333333 52.693333 117.333333 117.333333s-52.693333 117.333333-117.333333 117.333334z m-407.253333-64H768a53.333333 53.333333 0 0 0 0-106.666667H360.746667c8.106667 16 12.8 34.133333 12.8 53.333333 0 19.2-4.693333 37.333333-12.8 53.333334zM640 464.853333H298.666667c-17.706667 0-32-14.293333-32-32s14.293333-32 32-32h341.333333c17.706667 0 32 14.293333 32 32s-14.293333 32-32 32zM640 613.333333H298.666667c-17.706667 0-32-14.293333-32-32s14.293333-32 32-32h341.333333c17.706667 0 32 14.293333 32 32s-14.293333 32-32 32zM640 783.146667H298.666667c-17.706667 0-32-14.293333-32-32s14.293333-32 32-32h341.333333c17.706667 0 32 14.293333 32 32s-14.293333 32-32 32z"  /><path fill="#2c2c2c" d="M682.666667 928H256A117.546667 117.546667 0 0 1 138.666667 810.666667V213.333333c0-64.64 52.693333-117.333333 117.333333-117.333333h512v64H256A53.333333 53.333333 0 0 0 202.666667 213.333333v597.333334a53.333333 53.333333 0 0 0 53.333333 53.333333h426.666667a53.333333 53.333333 0 0 0 53.333333-53.333333V298.666667h64v512c0 64.64-52.693333 117.333333-117.333333 117.333333z"  /></svg>