<?xml version="1.0" standalone="no"?><!DOCTYPE svg PUBLIC "-//W3C//DTD SVG 1.1//EN" "http://www.w3.org/Graphics/SVG/1.1/DTD/svg11.dtd"><svg class="icon" width="200px" height="200.00px" viewBox="0 0 1024 1024" version="1.1" xmlns="http://www.w3.org/2000/svg"><path fill="#2c2c2c" d="M512 890.026667c-8.106667 0-16.426667-3.2-22.613333-9.386667l-103.68-103.68h-128a117.546667 117.546667 0 0 1-117.333334-117.333333V251.306667c0-64.64 52.693333-117.333333 117.333334-117.333334h508.373333c64.64 0 117.333333 52.693333 117.333333 117.333334v408.533333c0 64.64-52.693333 117.333333-117.333333 117.333333h-128l-103.68 103.68c-5.973333 6.186667-14.293333 9.173333-22.4 9.173334zM257.706667 197.973333a53.333333 53.333333 0 0 0-53.333334 53.333334v408.533333a53.333333 53.333333 0 0 0 53.333334 53.333333h141.226666c8.533333 0 16.64 3.413333 22.613334 9.386667L512 812.8l90.453333-90.453333c5.973333-5.973333 14.08-9.386667 22.613334-9.386667h141.226666a53.333333 53.333333 0 0 0 53.333334-53.333333V251.306667a53.333333 53.333333 0 0 0-53.333334-53.333334H257.706667z"  /><path fill="#2c2c2c" d="M512 652.8c-62.506667 0-125.013333-23.893333-172.586667-71.466667-12.586667-12.586667-12.586667-32.853333 0-45.226666s32.853333-12.586667 45.226667 0c70.186667 70.186667 184.533333 70.186667 254.933333 0 12.586667-12.586667 32.853333-12.586667 45.226667 0s12.586667 32.853333 0 45.226666A243.392 243.392 0 0 1 512 652.8z"  /></svg>