<?xml version="1.0" standalone="no"?><!DOCTYPE svg PUBLIC "-//W3C//DTD SVG 1.1//EN" "http://www.w3.org/Graphics/SVG/1.1/DTD/svg11.dtd"><svg t="1648993394636" class="icon" viewBox="0 0 1024 1024" version="1.1" xmlns="http://www.w3.org/2000/svg" p-id="3180" xmlns:xlink="http://www.w3.org/1999/xlink" width="200" height="200"><defs><style type="text/css">@font-face { font-family: feedback-iconfont; src: url("//at.alicdn.com/t/font_1031158_u69w8yhxdu.woff2?t=1630033759944") format("woff2"), url("//at.alicdn.com/t/font_1031158_u69w8yhxdu.woff?t=1630033759944") format("woff"), url("//at.alicdn.com/t/font_1031158_u69w8yhxdu.ttf?t=1630033759944") format("truetype"); }
</style></defs><path d="M370.667 533.506H515.324v34H370.668v180.507h-34V567.506H187v-34h149.667v-86.661C256.093 436.38 193.862 367.51 193.862 284.11c0-90.635 73.498-164.11 164.162-164.11 90.665 0 164.163 73.475 164.163 164.11 0 86.383-66.763 157.178-151.52 163.631v85.765z m-12.643-122.523c70.092 0 126.913-56.803 126.913-126.873 0-70.07-56.821-126.872-126.913-126.872S231.112 214.041 231.112 284.11c0 70.07 56.82 126.873 126.912 126.873z" fill="#454545" p-id="3181"></path><path d="M650.592 576.5V352.661l-136.65 134.592L489 460.594l180.667-185.608 167.816 187.607-29.376 24.66-123.515-134.591v224.232c81.753 9.377 145.243 78.784 145.243 163.014 0 90.626-73.498 164.092-164.162 164.092-90.665 0-164.163-73.466-164.163-164.092 0-85.543 65.487-155.798 149.082-163.409z m15.08 292.741c71.46 0 129.39-57.904 129.39-129.333s-57.93-129.333-129.39-129.333c-71.458 0-129.388 57.904-129.388 129.333s57.93 129.333 129.389 129.333z" fill="#454545" p-id="3182"></path></svg>