<?xml version="1.0" standalone="no"?><!DOCTYPE svg PUBLIC "-//W3C//DTD SVG 1.1//EN" "http://www.w3.org/Graphics/SVG/1.1/DTD/svg11.dtd"><svg class="icon" width="200px" height="200.00px" viewBox="0 0 1024 1024" version="1.1" xmlns="http://www.w3.org/2000/svg"><path d="M511.573333 852.693333c-20.693333 0-40.106667-8.106667-54.826666-22.613333L125.653333 498.986667a77.248 77.248 0 0 1 0-109.44l195.626667-195.413334c14.72-14.506667 34.133333-22.613333 54.826667-22.613333 20.693333 0 40.106667 8.106667 54.826666 22.826667l103.253334 103.466666c12.373333 12.586667 13.226667 33.493333 0.64 45.866667l-58.453334 58.453333c-3.413333 3.413333-3.84 7.466667-3.84 9.6s0.426667 6.186667 3.84 9.6l38.4 38.186667c5.333333 5.12 13.653333 5.12 18.986667 0l58.666667-58.453333c12.586667-12.373333 32.853333-12.373333 45.226666 0l156.373334 156.373333c12.586667 12.586667 12.586667 32.853333 0 45.226667L566.186667 830.08a76.8 76.8 0 0 1-54.613334 22.613333z m-135.466666-617.386666c-2.133333 0-6.186667 0.426667-9.6 3.84l-195.626667 195.413333c-5.333333 5.333333-5.333333 13.866667 0 18.986667l331.093333 331.093333c5.333333 5.333333 13.866667 5.333333 18.986667 0l205.013333-205.013333-111.146666-111.146667-36.053334 35.84a77.653333 77.653333 0 0 1-109.44 0l-38.4-38.186667c-14.72-14.506667-22.826667-34.133333-22.826666-54.826666 0-20.693333 8.106667-40.106667 22.613333-54.826667l35.84-35.84-81.493333-81.493333a11.818667 11.818667 0 0 0-8.96-3.84z" fill="#2B2C2C" /><path d="M771.2 611.84c-8.106667 0-16.426667-3.2-22.613333-9.386667l-133.76-133.76-36.053334 35.84a77.653333 77.653333 0 0 1-109.44 0l-38.4-38.186666c-14.72-14.506667-22.826667-34.133333-22.826666-54.826667 0-20.693333 8.106667-40.106667 22.613333-54.826667l55.253333-55.253333c0.853333-1.28 1.92-2.346667 2.986667-3.413333l104.106667-104.106667c30.293333-30.08 79.36-30.293333 109.44 0l195.413333 195.626667a76.8 76.8 0 0 1 22.613333 54.826666c0 20.693333-8.106667 40.106667-22.826666 54.826667l-103.466667 103.253333c-6.4 6.4-14.293333 9.386667-23.04 9.386667 0.426667 0 0.213333 0 0 0z m-156.373333-220.373333c8.106667 0 16.426667 3.2 22.613333 9.386666l134.186667 134.186667 81.28-81.28c3.413333-3.413333 3.84-7.466667 3.84-9.6s-0.426667-6.186667-3.84-9.6l-195.413334-195.626667a13.269333 13.269333 0 0 0-18.986666 0l-100.693334 100.693334c-0.853333 1.28-1.92 2.346667-2.986666 3.413333l-58.453334 58.453333c-3.413333 3.413333-3.84 7.466667-3.84 9.6s0.426667 6.186667 3.84 9.6l38.4 38.186667c5.333333 5.12 13.653333 5.12 18.986667 0l58.666667-58.453333c6.186667-5.76 14.293333-8.96 22.4-8.96z" fill="#2B2C2C" /><path d="M594.773333 788.48c-8.106667 0-16.426667-3.2-22.613333-9.386667L445.866667 652.8c-12.586667-12.586667-12.586667-32.853333 0-45.226667s32.853333-12.586667 45.226666 0l126.293334 126.293334c12.586667 12.586667 12.586667 32.853333 0 45.226666-6.4 6.186667-14.506667 9.386667-22.613334 9.386667zM686.506667 696.746667c-8.106667 0-16.426667-3.2-22.613334-9.386667l-78.08-78.08c-12.586667-12.586667-12.586667-32.853333 0-45.226667s32.853333-12.586667 45.226667 0l78.08 78.08c12.586667 12.586667 12.586667 32.853333 0 45.226667-6.4 6.186667-14.506667 9.386667-22.613333 9.386667z" fill="#2E5CAA" /></svg>