<?xml version="1.0" standalone="no"?><!DOCTYPE svg PUBLIC "-//W3C//DTD SVG 1.1//EN" "http://www.w3.org/Graphics/SVG/1.1/DTD/svg11.dtd"><svg class="icon" width="200px" height="200.00px" viewBox="0 0 1024 1024" version="1.1" xmlns="http://www.w3.org/2000/svg"><path fill="#2c2c2c" d="M512 434c-93.4 0-181.5-10.6-248-30-73.9-21.5-113-51.6-113-87s39.1-65.5 113-87c66.5-19.3 154.5-30 248-30 93.4 0 181.5 10.6 248 30 73.9 21.5 113 51.6 113 87s-39.1 65.5-113 87c-66.5 19.4-154.6 30-248 30z m0-200c-90.3 0-175 10.2-238.5 28.6-65.3 19-88.5 41.2-88.5 54.4s23.2 35.4 88.5 54.4C337 389.8 421.7 400 512 400c90.3 0 175-10.2 238.5-28.6 65.3-19 88.5-41.2 88.5-54.4s-23.2-35.4-88.5-54.4C687 244.2 602.3 234 512 234z"  /><path fill="#2c2c2c" d="M512 514c-93.4 0-181.5-10.6-248-30-73.9-21.5-113-51.6-113-87 0-9.4 7.6-17 17-17s17 7.6 17 17c0 13.2 23.2 35.4 88.5 54.4C337 469.8 421.7 480 512 480c90.3 0 175-10.2 238.5-28.6 65.3-19 88.5-41.2 88.5-54.4 0-9.4 7.6-17 17-17s17 7.6 17 17c0 35.4-39.1 65.5-113 87-66.5 19.4-154.6 30-248 30z"  /><path fill="#2c2c2c" d="M258.6 466.4c-9.4 0-17-7.6-17-17v-57.1c0-9.4 7.6-17 17-17s17 7.6 17 17v57.1c0 9.4-7.6 17-17 17zM341.6 486.4c-9.4 0-17-7.6-17-17v-57.1c0-9.4 7.6-17 17-17s17 7.6 17 17v57.1c0 9.4-7.6 17-17 17zM441.6 498.4c-9.4 0-17-7.6-17-17v-57.1c0-9.4 7.6-17 17-17s17 7.6 17 17v57.1c0 9.4-7.6 17-17 17zM532.6 508.4c-9.4 0-17-7.6-17-17v-57.1c0-9.4 7.6-17 17-17s17 7.6 17 17v57.1c0 9.4-7.6 17-17 17zM772.6 468.4c-9.4 0-17-7.6-17-17v-57.1c0-9.4 7.6-17 17-17s17 7.6 17 17v57.1c0 9.4-7.6 17-17 17z"  /><path fill="#2c2c2c" d="M512 595c-93.4 0-181.5-10.6-248-30-73.9-21.5-113-51.6-113-87 0-9.4 7.6-17 17-17s17 7.6 17 17c0 13.2 23.2 35.4 88.5 54.4C337 550.8 421.7 561 512 561c90.3 0 175-10.2 238.5-28.6 65.3-19 88.5-41.2 88.5-54.4 0-9.4 7.6-17 17-17s17 7.6 17 17c0 35.4-39.1 65.5-113 87-66.5 19.4-154.6 30-248 30z"  /><path fill="#2c2c2c" d="M512 675c-93.4 0-181.5-10.6-248-30-73.9-21.5-113-51.6-113-87 0-9.4 7.6-17 17-17s17 7.6 17 17c0 13.2 23.2 35.4 88.5 54.4C337 630.8 421.7 641 512 641c90.3 0 175-10.2 238.5-28.6 65.3-19 88.5-41.2 88.5-54.4 0-9.4 7.6-17 17-17s17 7.6 17 17c0 35.4-39.1 65.5-113 87-66.5 19.4-154.6 30-248 30z"  /><path fill="#2c2c2c" d="M258.6 627.4c-9.4 0-17-7.6-17-17v-57.2c0-9.4 7.6-17 17-17s17 7.6 17 17v57.1c0 9.5-7.6 17.1-17 17.1zM341.6 647.4c-9.4 0-17-7.6-17-17v-57.2c0-9.4 7.6-17 17-17s17 7.6 17 17v57.1c0 9.5-7.6 17.1-17 17.1zM441.6 659.4c-9.4 0-17-7.6-17-17v-57.1c0-9.4 7.6-17 17-17s17 7.6 17 17v57.1c0 9.4-7.6 17-17 17zM532.6 669.4c-9.4 0-17-7.6-17-17v-57.1c0-9.4 7.6-17 17-17s17 7.6 17 17v57.1c0 9.4-7.6 17-17 17zM772.6 629.4c-9.4 0-17-7.6-17-17v-57.2c0-9.4 7.6-17 17-17s17 7.6 17 17v57.1c0 9.5-7.6 17.1-17 17.1z"  /><path fill="#2c2c2c" d="M512 745c-93.4 0-181.5-10.6-248-30-73.9-21.5-113-51.6-113-87 0-9.4 7.6-17 17-17s17 7.6 17 17c0 13.2 23.2 35.4 88.5 54.4C337 700.8 421.7 711 512 711c90.3 0 175-10.2 238.5-28.6 65.3-19 88.5-41.2 88.5-54.4 0-9.4 7.6-17 17-17s17 7.6 17 17c0 35.4-39.1 65.5-113 87-66.5 19.4-154.6 30-248 30z"  /><path fill="#2c2c2c" d="M512 825c-93.4 0-181.5-10.6-248-30-73.9-21.5-113-51.6-113-87 0-9.4 7.6-17 17-17s17 7.6 17 17c0 13.2 23.2 35.4 88.5 54.4C337 780.8 421.7 791 512 791c90.3 0 175-10.2 238.5-28.6 65.3-19 88.5-41.2 88.5-54.4 0-9.4 7.6-17 17-17s17 7.6 17 17c0 35.4-39.1 65.5-113 87-66.5 19.4-154.6 30-248 30z"  /><path fill="#2c2c2c" d="M258.6 777.4c-9.4 0-17-7.6-17-17v-57.2c0-9.4 7.6-17 17-17s17 7.6 17 17v57.1c0 9.5-7.6 17.1-17 17.1zM341.6 797.4c-9.4 0-17-7.6-17-17v-57.2c0-9.4 7.6-17 17-17s17 7.6 17 17v57.1c0 9.5-7.6 17.1-17 17.1zM441.6 809.4c-9.4 0-17-7.6-17-17v-57.1c0-9.4 7.6-17 17-17s17 7.6 17 17v57.1c0 9.4-7.6 17-17 17zM532.6 819.4c-9.4 0-17-7.6-17-17v-57.1c0-9.4 7.6-17 17-17s17 7.6 17 17v57.1c0 9.4-7.6 17-17 17zM772.6 779.4c-9.4 0-17-7.6-17-17v-57.2c0-9.4 7.6-17 17-17s17 7.6 17 17v57.1c0 9.5-7.6 17.1-17 17.1z"  /></svg>