<?xml version="1.0" standalone="no"?><!DOCTYPE svg PUBLIC "-//W3C//DTD SVG 1.1//EN" "http://www.w3.org/Graphics/SVG/1.1/DTD/svg11.dtd"><svg class="icon" width="200px" height="200.00px" viewBox="0 0 1024 1024" version="1.1" xmlns="http://www.w3.org/2000/svg"><path fill="#2c2c2c" d="M512 941.226667c-8.533333 0-16.853333-3.413333-22.826667-9.6C456.533333 898.346667 171.093333 602.24 171.093333 423.68c0-187.946667 152.96-340.906667 340.906667-340.906667s340.906667 152.96 340.906667 340.906667c0 178.56-285.44 474.666667-318.08 507.946667-5.973333 6.186667-14.293333 9.6-22.826667 9.6z m0-794.453334c-152.746667 0-276.906667 124.16-276.906667 276.906667 0 118.613333 182.613333 338.346667 276.906667 439.04 94.293333-100.906667 276.906667-320.64 276.906667-439.04 0-152.533333-124.16-276.906667-276.906667-276.906667z"  /><path fill="#2c2c2c" d="M512 588.16c-90.666667 0-164.48-73.813333-164.48-164.48s73.813333-164.48 164.48-164.48 164.48 73.813333 164.48 164.48-73.813333 164.48-164.48 164.48z m0-264.746667c-55.253333 0-100.48 45.013333-100.48 100.48s45.013333 100.48 100.48 100.48 100.48-45.013333 100.48-100.48-45.226667-100.48-100.48-100.48z"  /></svg>