<?xml version="1.0" standalone="no"?><!DOCTYPE svg PUBLIC "-//W3C//DTD SVG 1.1//EN" "http://www.w3.org/Graphics/SVG/1.1/DTD/svg11.dtd"><svg class="icon" width="200px" height="200.00px" viewBox="0 0 1024 1024" version="1.1" xmlns="http://www.w3.org/2000/svg"><path d="M440.96 506.666667c-105.813333 0-192-86.186667-192-192s86.186667-192 192-192 192 86.186667 192 192-85.973333 192-192 192z m0-320c-70.613333 0-128 57.386667-128 128s57.386667 128 128 128 128-57.386667 128-128-57.386667-128-128-128zM641.28 901.333333H240.853333c-33.92 0-66.346667-14.72-88.533333-40.533333a116.608 116.608 0 0 1-27.52-93.44l18.346667-128c8.106667-57.386667 58.24-100.693333 116.266666-100.693333h363.946667c58.026667 0 107.946667 43.306667 116.053333 100.693333l18.346667 128c4.906667 33.706667-5.12 67.626667-27.52 93.44a117.994667 117.994667 0 0 1-88.96 40.533333z m-382.293333-298.666666c-26.453333 0-49.066667 19.626667-52.693334 45.866666l-18.346666 128c-2.133333 15.36 2.346667 30.72 12.586666 42.453334s24.746667 18.346667 40.32 18.346666h400.64c15.36 0 30.08-6.613333 40.32-18.346666 10.026667-11.733333 14.72-27.093333 12.373334-42.453334l-18.346667-128a53.653333 53.653333 0 0 0-52.693333-45.866666H258.986667z" fill="#2B2C2C" /><path d="M616.96 752h-85.333333c-17.706667 0-32-14.293333-32-32s14.293333-32 32-32h85.333333c17.706667 0 32 14.293333 32 32s-14.506667 32-32 32z" fill="#2E5CAA" /><path d="M783.146667 885.333333c-17.706667 0-32-14.293333-32-32s14.293333-32 32-32c15.36 0 30.08-6.613333 40.32-18.346666 10.026667-11.733333 14.72-27.093333 12.586666-42.453334l-18.346666-128a53.653333 53.653333 0 0 0-52.693334-45.866666c-17.706667 0-32-14.293333-32-32s14.293333-32 32-32c58.026667 0 107.946667 43.306667 116.266667 100.693333l18.346667 128c4.693333 33.706667-5.333333 67.84-27.52 93.44a117.994667 117.994667 0 0 1-88.96 40.533333zM653.653333 504.96c-13.653333 0-26.24-8.746667-30.506666-22.613333-5.12-16.853333 4.266667-34.773333 21.12-40.106667 53.973333-16.64 90.24-65.706667 90.24-122.453333s-36.266667-105.813333-90.24-122.24a31.786667 31.786667 0 0 1-21.12-39.893334c5.12-16.853333 23.253333-26.24 39.893333-21.12 81.066667 24.96 135.466667 98.773333 135.466667 183.466667s-54.4 158.506667-135.466667 183.466667c-3.2 1.066667-6.186667 1.493333-9.386667 1.493333z" fill="#2B2C2C" /></svg>