<svg t="1649145886843" class="icon" viewBox="0 0 1024 1024" version="1.1" xmlns="http://www.w3.org/2000/svg" p-id="3141" width="200" height="200"><path d="M928 288H96v384h160v224h512V672h160zM704 832H320V544h384z m160-224h-96v-128H256v128h-96V352h704zM320 192h384v64h64V128H256v128h64v-64z" fill="#333333" p-id="3142"></path><path d="M384 608h256v64H384zM384 704h256v64H384z" fill="#333333" p-id="3143"></path><path d="M800 416m-32 0a32 32 0 1 0 64 0 32 32 0 1 0-64 0Z" fill="#333333" p-id="3144"></path></svg>