<?xml version="1.0" standalone="no"?><!DOCTYPE svg PUBLIC "-//W3C//DTD SVG 1.1//EN" "http://www.w3.org/Graphics/SVG/1.1/DTD/svg11.dtd"><svg class="icon" width="200px" height="200.00px" viewBox="0 0 1024 1024" version="1.1" xmlns="http://www.w3.org/2000/svg"><path d="M693.333333 896h-362.666666C218.88 896 128 805.12 128 693.333333v-362.666666C128 218.88 218.88 128 330.666667 128h362.666666c111.786667 0 202.666667 90.88 202.666667 202.666667v362.666666c0 111.786667-90.88 202.666667-202.666667 202.666667z m-362.666666-704C254.293333 192 192 254.293333 192 330.666667v362.666666c0 76.373333 62.293333 138.666667 138.666667 138.666667h362.666666c76.373333 0 138.666667-62.293333 138.666667-138.666667v-362.666666c0-76.373333-62.293333-138.666667-138.666667-138.666667h-362.666666z" fill="#2B2C2C" /><path d="M632.746667 664.746667c-8.106667 0-16.426667-3.2-22.613334-9.386667L368.64 413.866667c-12.586667-12.586667-12.586667-32.853333 0-45.226667s32.853333-12.586667 45.226667 0L655.36 610.133333c12.586667 12.586667 12.586667 32.853333 0 45.226667-6.4 6.186667-14.506667 9.386667-22.613333 9.386667z" fill="#2E5CAA" /><path d="M391.253333 664.746667c-8.106667 0-16.426667-3.2-22.613333-9.386667a31.786667 31.786667 0 0 1 0-45.226667L610.133333 368.64c12.586667-12.586667 32.853333-12.586667 45.226667 0s12.586667 32.853333 0 45.226667L413.866667 655.36c-6.186667 6.186667-14.293333 9.386667-22.613334 9.386667z" fill="#2E5CAA" /></svg>