<?xml version="1.0" standalone="no"?><!DOCTYPE svg PUBLIC "-//W3C//DTD SVG 1.1//EN" "http://www.w3.org/Graphics/SVG/1.1/DTD/svg11.dtd"><svg class="icon" width="200px" height="200.00px" viewBox="0 0 1024 1024" version="1.1" xmlns="http://www.w3.org/2000/svg"><path fill="#2c2c2c" d="M392.746667 299.093333h-277.333334c-17.706667 0-32-14.293333-32-32s14.293333-32 32-32h277.333334c17.706667 0 32 14.293333 32 32s-14.293333 32-32 32zM606.08 576h-490.666667c-17.706667 0-32-14.293333-32-32s14.293333-32 32-32h490.666667c17.706667 0 32 14.293333 32 32s-14.293333 32-32 32zM606.08 853.12h-490.666667c-17.706667 0-32-14.293333-32-32s14.293333-32 32-32h490.666667c17.706667 0 32 14.293333 32 32s-14.293333 32-32 32zM757.76 853.333333c-8.106667 0-16.426667-3.2-22.613333-9.386666a31.786667 31.786667 0 0 1 0-45.226667l150.826666-150.826667c12.586667-12.586667 32.853333-12.586667 45.226667 0s12.586667 32.853333 0 45.226667l-150.826667 150.826667c-6.186667 6.186667-14.506667 9.386667-22.613333 9.386666z"  /><path fill="#2c2c2c" d="M749.013333 853.333333c-17.706667 0-32-14.293333-32-32v-618.666666c0-17.706667 14.293333-32 32-32s32 14.293333 32 32v618.666666c0 17.706667-14.506667 32-32 32z"  /></svg>