<?xml version="1.0" standalone="no"?><!DOCTYPE svg PUBLIC "-//W3C//DTD SVG 1.1//EN" "http://www.w3.org/Graphics/SVG/1.1/DTD/svg11.dtd"><svg class="icon" width="200px" height="200.00px" viewBox="0 0 1024 1024" version="1.1" xmlns="http://www.w3.org/2000/svg"><path fill="#2c2c2c" d="M504.4 780c-32.5 0-63.2-13.6-86.4-38.3-24-25.4-36.8-59.7-34.5-91.7-0.4-36 16.7-67.7 50.9-94.2V499H205c-43 0-78-35-78-78V250c0-43 35-78 78-78h607c40.8 0 74 33.2 74 74v178.9c0 40.8-33.2 74-74 74H577.6v56.7c35.2 26.8 53 58.5 52.8 94.4 1.8 34.5-9.5 66.6-31.7 90.5-23.1 24.8-55.9 38.8-92.3 39.4-0.7 0.1-1.4 0.1-2 0.1zM205 206c-24.3 0-44 19.7-44 44v170.9c0 24.3 19.7 44 44 44h246.4c9.4 0 17 7.6 17 17v82.4c0 5.5-2.7 10.7-7.2 13.9-29.9 21.2-44.2 44.7-43.7 72v1.7c-1.8 22.9 7.7 47.8 25.3 66.6 17.1 18.2 39.5 28 63 27.6 27.2-0.5 51.3-10.6 68-28.6 16-17.2 24-40.6 22.6-66v-1.1c0.3-27-14.6-50.6-45.5-72-4.6-3.2-7.3-8.4-7.3-14V482c0-9.4 7.6-17 17-17H812c22.1 0 40-17.9 40-40V246c0-22.1-17.9-40-40-40H205z"  /><path fill="#2c2c2c" d="M326.4 296H229c-9.4 0-17-7.6-17-17s7.6-17 17-17h97.4c9.4 0 17 7.6 17 17s-7.6 17-17 17zM456.4 409.8h-80.2c-9.4 0-17-7.6-17-17V278c0-9.4 7.6-17 17-17h80.2c9.4 0 17 7.6 17 17s-7.6 17-17 17h-63.2v80.8h63.2c9.4 0 17 7.6 17 17s-7.6 17-17 17zM505 408.3c-1.9 0-3.8-0.3-5.7-1-8.8-3.1-13.5-12.9-10.3-21.7l42.1-118.3c2.3-6.6 8.4-11 15.4-11.3 6.9-0.2 13.4 3.8 16.2 10.1l52.2 118.3c3.8 8.6-0.1 18.6-8.7 22.4-8.6 3.8-18.6-0.1-22.4-8.7l-34.9-79.2L521 397c-2.5 6.9-9 11.3-16 11.3zM764 409.8c-9.4 0-17-7.6-17-17V339l-27.4 45.3c-3.1 5.1-8.6 8.2-14.5 8.2s-11.5-3.1-14.5-8.2L663 338.9v53.8c0 9.4-7.6 17-17 17s-17-7.6-17-17V278c0-7.6 5.1-14.3 12.4-16.4 7.3-2 15.2 1 19.1 7.6l44.4 73.4 44.4-73.4c4-6.5 11.8-9.6 19.1-7.6 7.3 2.1 12.4 8.7 12.4 16.4v114.8c0.2 9.4-7.4 17-16.8 17z"  /><path fill="#2c2c2c" d="M278.7 413.2c-9.4 0-17-7.6-17-17V283.1c0-9.4 7.6-17 17-17s17 7.6 17 17v113.1c0 9.4-7.6 17-17 17zM456.4 350.7h-76.2c-9.4 0-17-7.6-17-17s7.6-17 17-17h76.2c9.4 0 17 7.6 17 17s-7.6 17-17 17zM582.3 383H522c-9.4 0-17-7.6-17-17s7.6-17 17-17h60.3c9.4 0 17 7.6 17 17s-7.6 17-17 17zM820 840H203c-39.1 0-71-31.9-71-71V600c0-39.1 31.9-71 71-71h166.6c9.4 0 17 7.6 17 17s-7.6 17-17 17H203c-20.4 0-37 16.6-37 37v169c0 20.4 16.6 37 37 37h617c20.4 0 37-16.6 37-37V600c0-20.4-16.6-37-37-37H650.7c-9.4 0-17-7.6-17-17s7.6-17 17-17H820c39.1 0 71 31.9 71 71v169c0 39.1-31.9 71-71 71z"  /></svg>