<?xml version="1.0" standalone="no"?><!DOCTYPE svg PUBLIC "-//W3C//DTD SVG 1.1//EN" "http://www.w3.org/Graphics/SVG/1.1/DTD/svg11.dtd"><svg class="icon" width="200px" height="200.00px" viewBox="0 0 1024 1024" version="1.1" xmlns="http://www.w3.org/2000/svg"><path fill="#2c2c2c" d="M516 921H215c-40.8 0-74-33.2-74-74V197c0-40.8 33.2-74 74-74h301c40.8 0 74 33.2 74 74v650c0 40.8-33.2 74-74 74zM215 157c-22.1 0-40 17.9-40 40v650c0 22.1 17.9 40 40 40h301c22.1 0 40-17.9 40-40V197c0-22.1-17.9-40-40-40H215z"  /><path fill="#2c2c2c" d="M469 182H257c-12.1 0-22-9.9-22-22s9.9-22 22-22h212c12.1 0 22 9.9 22 22s-9.9 22-22 22zM870.9 881h-245c-9.4 0-17-7.6-17-17s7.6-17 17-17h244.9c1.2-0.5 4.1-4.2 4.1-10.3V635.3c0-6.1-2.9-9.8-4.1-10.3H618c-9.4 0-17-7.6-17-17s7.6-17 17-17h252.9c21.3 0 38 19.5 38 44.3v201.4c0 24.8-16.7 44.3-38 44.3z m0-256z"  /><path fill="#2c2c2c" d="M800.5 751c-16 0-31.1-5-42.7-14.2-12.6-9.9-19.8-24.1-19.8-38.8s7.2-28.8 19.8-38.8c11.6-9.2 26.8-14.2 42.7-14.2s31.1 5 42.7 14.2c12.6 9.9 19.8 24.1 19.8 38.8s-7.2 28.8-19.8 38.8c-11.6 9.2-26.7 14.2-42.7 14.2z m0-72c-15.2 0-28.5 8.9-28.5 19s13.3 19 28.5 19 28.5-8.9 28.5-19-13.3-19-28.5-19z"  /><path fill="#2c2c2c" d="M800.5 831c-16 0-31.1-5-42.7-14.2-12.6-9.9-19.8-24.1-19.8-38.8s7.2-28.8 19.8-38.8c11.6-9.2 26.8-14.2 42.7-14.2s31.1 5 42.7 14.2c12.6 9.9 19.8 24.1 19.8 38.8s-7.2 28.8-19.8 38.8c-11.6 9.2-26.7 14.2-42.7 14.2z m0-72c-15.2 0-28.5 8.9-28.5 19s13.3 19 28.5 19 28.5-8.9 28.5-19-13.3-19-28.5-19zM649.5 831.1c-2.1 0-4.3-0.4-6.4-1.3-8.7-3.5-12.9-13.5-9.3-22.2L684.1 684H618c-9.4 0-17-7.6-17-17s7.6-17 17-17h91.3c5.7 0 10.9 2.8 14.1 7.5 3.2 4.7 3.8 10.7 1.6 15.9l-59.8 147.1c-2.6 6.6-9 10.6-15.7 10.6zM477.6 870H248.2c-9.4 0-17-7.6-17-17s7.6-17 17-17h229.4c9.4 0 17 7.6 17 17s-7.6 17-17 17zM362.5 387c-28.9 0-52.5-23.6-52.5-52.5s23.6-52.5 52.5-52.5 52.5 23.6 52.5 52.5-23.6 52.5-52.5 52.5z m0-71c-10.2 0-18.5 8.3-18.5 18.5s8.3 18.5 18.5 18.5 18.5-8.3 18.5-18.5-8.3-18.5-18.5-18.5zM256 474h25c5 0 9 4 9 9v26c0 5-4 9-9 9h-25c-5 0-9-4-9-9v-26c0-5 4-9 9-9zM353 474h25c5 0 9 4 9 9v26c0 5-4 9-9 9h-25c-5 0-9-4-9-9v-26c0-5 4-9 9-9zM448 474h25c5 0 9 4 9 9v26c0 5-4 9-9 9h-25c-5 0-9-4-9-9v-26c0-5 4-9 9-9zM256 544h25c5 0 9 4 9 9v26c0 5-4 9-9 9h-25c-5 0-9-4-9-9v-26c0-5 4-9 9-9zM353 544h25c5 0 9 4 9 9v26c0 5-4 9-9 9h-25c-5 0-9-4-9-9v-26c0-5 4-9 9-9zM448 544h25c5 0 9 4 9 9v26c0 5-4 9-9 9h-25c-5 0-9-4-9-9v-26c0-5 4-9 9-9zM256 614h25c5 0 9 4 9 9v26c0 5-4 9-9 9h-25c-5 0-9-4-9-9v-26c0-5 4-9 9-9zM353 614h25c5 0 9 4 9 9v26c0 5-4 9-9 9h-25c-5 0-9-4-9-9v-26c0-5 4-9 9-9zM448 614h25c5 0 9 4 9 9v26c0 5-4 9-9 9h-25c-5 0-9-4-9-9v-26c0-5 4-9 9-9z"  /></svg>