<?xml version="1.0" standalone="no"?><!DOCTYPE svg PUBLIC "-//W3C//DTD SVG 1.1//EN" "http://www.w3.org/Graphics/SVG/1.1/DTD/svg11.dtd"><svg class="icon" width="200px" height="200.00px" viewBox="0 0 1024 1024" version="1.1" xmlns="http://www.w3.org/2000/svg"><path d="M553.6 384c-31.786667 0-61.013333-1.706667-80.853333-21.546667-11.733333-11.733333-17.706667-27.093333-17.706667-46.08 0-56.746667 54.186667-103.04 120.746667-103.04s120.746667 46.293333 120.746666 103.04c0 18.986667-5.973333 34.56-17.706666 46.08-21.973333 21.76-55.893333 21.546667-91.52 21.333334L576 384h-22.4z m-34.346667-66.56c8.106667 2.773333 29.866667 2.56 44.8 2.56h23.893334c14.933333 0 36.693333 0.213333 44.8-2.56v-1.066667c0-21.12-26.026667-39.04-56.746667-39.04s-56.746667 17.92-56.746667 39.04c-0.213333 0.426667 0 0.64 0 1.066667z" fill="#2E5CAA" /><path d="M431.573333 914.986667c-6.826667 0-13.44-2.133333-18.986666-6.4-8.106667-5.973333-13.013333-15.573333-13.013334-25.6v-122.666667h-98.346666c-17.706667 0-32-14.293333-32-32v-114.56H206.72c-11.306667 0-21.76-5.973333-27.52-15.573333-5.76-9.6-5.973333-21.546667-0.64-31.573334l74.666667-139.093333c-1.493333-138.88 73.173333-249.173333 200.96-296.106667 127.573333-46.933333 274.986667-17.92 342.826666 67.413334 137.813333 173.44-35.2 448.213333-71.04 501.546666v103.68c0 14.08-9.173333 26.453333-22.826666 30.72l-262.186667 79.36c-3.2 0.426667-6.4 0.853333-9.386667 0.853334z m-98.346666-218.666667h98.346666c17.706667 0 32 14.293333 32 32v111.573333l198.186667-59.946666v-89.813334c0-6.613333 2.133333-13.226667 5.973333-18.56 1.92-2.773333 198.826667-282.24 78.933334-433.066666-50.56-63.573333-169.386667-84.266667-270.506667-47.146667-49.706667 18.133333-164.48 78.506667-158.933333 242.773333 0.213333 5.546667-1.066667 11.306667-3.84 16.213334l-53.333334 99.413333h40.96c17.706667 0 32 14.293333 32 32v114.56z" fill="#2B2C2C" opacity=".98" /></svg>