<?xml version="1.0" standalone="no"?><!DOCTYPE svg PUBLIC "-//W3C//DTD SVG 1.1//EN" "http://www.w3.org/Graphics/SVG/1.1/DTD/svg11.dtd"><svg class="icon" width="200px" height="200.00px" viewBox="0 0 1024 1024" version="1.1" xmlns="http://www.w3.org/2000/svg"><path fill="#2c2c2c" d="M512 149.333333c23.466667 0 42.666667 19.2 42.666667 42.666667s-19.2 42.666667-42.666667 42.666667-42.666667-19.2-42.666667-42.666667 19.2-42.666667 42.666667-42.666667m0-64c-58.88 0-106.666667 47.786667-106.666667 106.666667s47.786667 106.666667 106.666667 106.666667 106.666667-47.786667 106.666667-106.666667-47.786667-106.666667-106.666667-106.666667zM512 469.12c23.466667 0 42.666667 19.2 42.666667 42.666667s-19.2 42.666667-42.666667 42.666666-42.666667-19.2-42.666667-42.666666 19.2-42.666667 42.666667-42.666667m0-64c-58.88 0-106.666667 47.786667-106.666667 106.666667s47.786667 106.666667 106.666667 106.666666 106.666667-47.786667 106.666667-106.666666-47.786667-106.666667-106.666667-106.666667zM512 789.333333c23.466667 0 42.666667 19.2 42.666667 42.666667s-19.2 42.666667-42.666667 42.666667-42.666667-19.2-42.666667-42.666667 19.2-42.666667 42.666667-42.666667m0-64c-58.88 0-106.666667 47.786667-106.666667 106.666667s47.786667 106.666667 106.666667 106.666667 106.666667-47.786667 106.666667-106.666667-47.786667-106.666667-106.666667-106.666667z"  /></svg>