<?xml version="1.0" standalone="no"?><!DOCTYPE svg PUBLIC "-//W3C//DTD SVG 1.1//EN" "http://www.w3.org/Graphics/SVG/1.1/DTD/svg11.dtd"><svg class="icon" width="200px" height="200.00px" viewBox="0 0 1024 1024" version="1.1" xmlns="http://www.w3.org/2000/svg"><path d="M510.933333 197.76l296.32 181.12-296.32 181.12-296.32-181.12 296.32-181.12m0-67.626667c-7.68 0-15.36 2.133333-22.186666 6.186667L151.466667 342.613333a42.538667 42.538667 0 0 0 0 72.746667l337.28 206.08c6.826667 4.266667 14.506667 6.186667 22.186666 6.186667s15.36-2.133333 22.186667-6.186667l337.28-206.08a42.538667 42.538667 0 0 0 0-72.746667L533.333333 136.32a43.733333 43.733333 0 0 0-22.4-6.186667z" fill="#2B2C2C" /><path d="M511.786667 893.226667c-144.213333 0-261.546667-117.333333-261.546667-261.546667v-161.706667h64v161.706667c0 109.013333 88.746667 197.546667 197.546667 197.546667 39.68 0 77.866667-11.733333 110.506666-33.706667l35.84 52.906667c-43.306667 29.226667-93.866667 44.8-146.346666 44.8zM709.333333 469.76h64v136.32h-64zM860.8 577.28c-17.706667 0-32-14.293333-32-32v-170.666667c0-17.706667 14.293333-32 32-32s32 14.293333 32 32v170.666667c0 17.706667-14.293333 32-32 32z" fill="#2B2C2C" /><path d="M732.8 893.866667c-88.32 0-160-71.68-160-160s71.68-160 160-160 160 71.68 160 160-71.68 160-160 160z m0-256c-52.906667 0-96 43.093333-96 96s43.093333 96 96 96 96-43.093333 96-96-42.88-96-96-96z" fill="#2E5CAA" /><path d="M732.8 733.866667m-42.666667 0a42.666667 42.666667 0 1 0 85.333334 0 42.666667 42.666667 0 1 0-85.333334 0Z" fill="#2E5CAA" /></svg>