<?xml version="1.0" standalone="no"?><!DOCTYPE svg PUBLIC "-//W3C//DTD SVG 1.1//EN" "http://www.w3.org/Graphics/SVG/1.1/DTD/svg11.dtd"><svg class="icon" width="200px" height="200.00px" viewBox="0 0 1024 1024" version="1.1" xmlns="http://www.w3.org/2000/svg"><path d="M555.562667 263.530667l45.248-45.269334 150.848 150.848-45.248 45.269334z" fill="#2E5CAA" /><path d="M356.693333 787.2h-120.746666a53.333333 53.333333 0 0 1-53.333334-53.333333v-120.746667c0-14.08 5.76-27.733333 15.573334-37.76L629.546667 144.213333c20.693333-20.906667 54.613333-20.693333 75.52 0l120.746666 120.746667c10.026667 10.026667 15.573333 23.466667 15.573334 37.76 0 14.293333-5.546667 27.733333-15.573334 37.76L394.453333 771.626667c-10.026667 10.026667-23.68 15.573333-37.76 15.573333z m-110.08-64h105.6l420.48-420.48-105.6-105.6-420.48 420.48v105.6zM832 895.36H192c-17.706667 0-32-14.293333-32-32s14.293333-32 32-32h640c17.706667 0 32 14.293333 32 32s-14.293333 32-32 32z" fill="#2B2C2C" /></svg>