<?xml version="1.0" standalone="no"?><!DOCTYPE svg PUBLIC "-//W3C//DTD SVG 1.1//EN" "http://www.w3.org/Graphics/SVG/1.1/DTD/svg11.dtd"><svg class="icon" width="200px" height="200.00px" viewBox="0 0 1024 1024" version="1.1" xmlns="http://www.w3.org/2000/svg"><path d="M672 896h-426.666667A117.546667 117.546667 0 0 1 128 778.666667v-426.666667c0-64.64 52.693333-117.333333 117.333333-117.333333h426.666667c64.64 0 117.333333 52.693333 117.333333 117.333333v426.666667c0 64.64-52.693333 117.333333-117.333333 117.333333z m-426.666667-597.333333A53.333333 53.333333 0 0 0 192 352v426.666667a53.333333 53.333333 0 0 0 53.333333 53.333333h426.666667a53.333333 53.333333 0 0 0 53.333333-53.333333v-426.666667a53.333333 53.333333 0 0 0-53.333333-53.333333h-426.666667z" fill="#2B2C2C" /><path d="M778.666667 789.333333v-64a53.333333 53.333333 0 0 0 53.333333-53.333333v-426.666667A53.333333 53.333333 0 0 0 778.666667 192h-426.666667a53.333333 53.333333 0 0 0-53.333333 53.333333h-64C234.666667 180.693333 287.36 128 352 128h426.666667c64.64 0 117.333333 52.693333 117.333333 117.333333v426.666667c0 64.64-52.693333 117.333333-117.333333 117.333333z" fill="#2B2C2C" /><path d="M586.666667 597.333333h-256c-17.706667 0-32-14.293333-32-32s14.293333-32 32-32h256c17.706667 0 32 14.293333 32 32s-14.293333 32-32 32z" fill="#2E5CAA" /><path d="M458.666667 725.333333c-17.706667 0-32-14.293333-32-32v-256c0-17.706667 14.293333-32 32-32s32 14.293333 32 32v256c0 17.706667-14.293333 32-32 32z" fill="#2E5CAA" /></svg>