<?xml version="1.0" standalone="no"?><!DOCTYPE svg PUBLIC "-//W3C//DTD SVG 1.1//EN" "http://www.w3.org/Graphics/SVG/1.1/DTD/svg11.dtd"><svg class="icon" width="200px" height="200.00px" viewBox="0 0 1024 1024" version="1.1" xmlns="http://www.w3.org/2000/svg"><path d="M775.466667 886.186667h-526.933334c-15.573333 0-29.013333-11.306667-31.573333-26.666667l-85.333333-515.2a31.744 31.744 0 0 1 31.36-37.12h697.386666c9.386667 0 18.346667 4.053333 24.32 11.306667 5.973333 7.253333 8.746667 16.64 7.04 25.813333l-85.333333 515.2c-1.92 15.36-15.36 26.666667-30.933333 26.666667z m-499.84-64h472.533333l74.666667-451.2H200.96l74.666667 451.2z" fill="#2B2C2C" /><path d="M682.24 477.013333c-17.706667 0-32-14.293333-32-32V212.48c0-5.973333-4.693333-10.666667-10.666667-10.666667H380.8c-5.973333 0-10.666667 4.693333-10.666667 10.666667v232.533333c0 17.706667-14.293333 32-32 32s-32-14.293333-32-32V212.48c0-41.173333 33.493333-74.666667 74.666667-74.666667h258.773333c41.173333 0 74.666667 33.493333 74.666667 74.666667v232.533333c0 17.706667-14.293333 32-32 32z" fill="#2B2C2C" /><path d="M661.973333 736.853333h-298.666666c-17.706667 0-32-14.293333-32-32s14.293333-32 32-32h298.666666c17.706667 0 32 14.293333 32 32s-14.293333 32-32 32z" fill="#2E5CAA" /></svg>